<?xml version="1.0" encoding="UTF-8"?>
<svg width="24px" height="24px" viewBox="0 0 24 24" version="1.1" xmlns="http://www.w3.org/2000/svg" xmlns:xlink="http://www.w3.org/1999/xlink">
    <!-- Generator: Sketch 63.1 (92452) - https://sketch.com -->
    <title>Red@1x</title>
    <desc>Created with Sketch.</desc>
    <g id="Page-1" stroke="none" stroke-width="1" fill="none" fill-rule="evenodd">
        <g id="Global-Dash-Burkina" transform="translate(-1305.000000, -1188.000000)">
            <g id="Red" transform="translate(1305.000000, 1188.000000)">
                <path d="M22.0005148,24.0007889 L1.99977407,24.0007889 C0.895733175,24.0007889 -0.000300011112,23.1047557 -0.000300011112,22.0007148 L-0.000300011112,1.99997407 C-0.000300011112,0.895933183 0.895733175,-0.000100003704 1.99977407,-0.000100003704 L22.0005148,-0.000100003704 C23.1045557,-0.000100003704 24.0005889,0.895933183 24.0005889,1.99997407 L24.0005889,22.0007148 C24.0005889,23.1047557 23.1045557,24.0007889 22.0005148,24.0007889" id="Fill-1" fill="#DB6767"></path>
                <line x1="12.0001444" y1="13.2962925" x2="12.0001444" y2="5.76901367" id="Stroke-4" stroke="#FFFFFF" stroke-width="2.530612" stroke-linecap="round" stroke-linejoin="round"></line>
                <line x1="12.0001444" y1="17.7471573" x2="12.0001444" y2="17.7471573" id="Stroke-6" stroke="#FFFFFF" stroke-width="1.83673469" stroke-linecap="round" stroke-linejoin="round"></line>
                <path d="M13.5021001,17.7471573 C13.5021001,18.577188 12.8290752,19.2482129 12.0000444,19.2482129 C11.1710137,19.2482129 10.4989889,18.577188 10.4989889,17.7471573 C10.4989889,16.9181266 11.1710137,16.2461017 12.0000444,16.2461017 C12.8290752,16.2461017 13.5021001,16.9181266 13.5021001,17.7471573" id="Fill-8" fill="#FFFFFF"></path>
            </g>
        </g>
    </g>
</svg>