<svg width="231" height="109" viewBox="0 0 231 109" fill="none" xmlns="http://www.w3.org/2000/svg">
<path d="M0 25.3036H10.8971C19.6148 25.3036 29.4222 30.6751 29.4222 42.4923C29.4222 53.2353 20.7045 59.6811 9.80741 59.6811H0" fill="#FDE800"/>
<path d="M58.8488 59.6819H47.9516C39.2339 59.6819 29.4265 54.3104 29.4265 42.4931C29.4265 31.7502 38.1442 25.3044 49.0413 25.3044H58.8488" fill="white"/>
<path d="M72.1143 50.226V28.8408H78.7888C80.6958 28.8408 82.3992 29.2667 83.8989 30.1186C85.4087 30.9607 86.5856 32.1651 87.4299 33.7318C88.2741 35.2887 88.6962 37.061 88.6962 39.0487V40.0328C88.6962 42.0205 88.2791 43.7879 87.4448 45.335C86.6204 46.8821 85.4534 48.0816 83.9436 48.9335C82.4339 49.7854 80.7306 50.2162 78.8335 50.226H72.1143ZM76.5838 32.4099V46.6863H78.7441C80.4922 46.6863 81.8281 46.1233 82.7518 44.9972C83.6755 43.8711 84.1473 42.2604 84.1671 40.165V39.034C84.1671 36.8602 83.7102 35.2152 82.7965 34.099C81.8827 32.9729 80.5468 32.4099 78.7888 32.4099H76.5838Z" fill="white"/>
<path d="M99.0953 50.5198C96.7314 50.5198 94.8046 49.805 93.3147 48.3754C91.8348 46.9458 91.0949 45.0413 91.0949 42.6619V42.2506C91.0949 40.6546 91.4077 39.2298 92.0335 37.9765C92.6592 36.7134 93.5432 35.744 94.6854 35.0683C95.8375 34.3829 97.1486 34.0402 98.6186 34.0402C100.824 34.0402 102.557 34.7256 103.818 36.0965C105.089 37.4673 105.725 39.411 105.725 41.9275V43.6606H95.4601C95.5992 44.6986 96.0163 45.5309 96.7116 46.1575C97.4168 46.7842 98.3057 47.0975 99.3784 47.0975C101.037 47.0975 102.333 46.5051 103.267 45.3203L105.382 47.6557C104.737 48.5565 103.863 49.2615 102.76 49.7707C101.658 50.2701 100.436 50.5198 99.0953 50.5198ZM98.6037 37.4771C97.7495 37.4771 97.0542 37.7611 96.5179 38.329C95.9915 38.8969 95.6538 39.7096 95.5048 40.7672H101.494V40.4293C101.474 39.4893 101.216 38.7647 100.719 38.2556C100.223 37.7366 99.5175 37.4771 98.6037 37.4771Z" fill="white"/>
<path d="M112.727 50.226H108.407V27.6658H112.727V50.226Z" fill="white"/>
<path d="M120.832 50.226H116.512V34.334H120.832V50.226ZM116.258 30.2214C116.258 29.585 116.472 29.0611 116.899 28.6498C117.336 28.2386 117.927 28.033 118.672 28.033C119.407 28.033 119.993 28.2386 120.43 28.6498C120.867 29.0611 121.085 29.585 121.085 30.2214C121.085 30.8677 120.862 31.3964 120.415 31.8077C119.978 32.2189 119.397 32.4246 118.672 32.4246C117.947 32.4246 117.361 32.2189 116.914 31.8077C116.477 31.3964 116.258 30.8677 116.258 30.2214Z" fill="white"/>
<path d="M130.427 45.0413L133.421 34.334H137.921L132.483 50.226H128.371L122.933 34.334H127.432L130.427 45.0413Z" fill="white"/>
<path d="M147.038 50.5198C144.675 50.5198 142.748 49.805 141.258 48.3754C139.778 46.9458 139.038 45.0413 139.038 42.6619V42.2506C139.038 40.6546 139.351 39.2298 139.977 37.9765C140.602 36.7134 141.486 35.744 142.628 35.0683C143.781 34.3829 145.092 34.0402 146.562 34.0402C148.767 34.0402 150.5 34.7256 151.761 36.0965C153.033 37.4673 153.668 39.411 153.668 41.9275V43.6606H143.403C143.542 44.6986 143.959 45.5309 144.655 46.1575C145.36 46.7842 146.249 47.0975 147.321 47.0975C148.98 47.0975 150.276 46.5051 151.21 45.3203L153.326 47.6557C152.68 48.5565 151.806 49.2615 150.703 49.7707C149.601 50.2701 148.379 50.5198 147.038 50.5198ZM146.547 37.4771C145.693 37.4771 144.997 37.7611 144.461 38.329C143.935 38.8969 143.597 39.7096 143.448 40.7672H149.437V40.4293C149.417 39.4893 149.159 38.7647 148.662 38.2556C148.166 37.7366 147.461 37.4771 146.547 37.4771Z" fill="white"/>
<path d="M165.185 38.3143C164.599 38.236 164.082 38.1968 163.635 38.1968C162.006 38.1968 160.939 38.7403 160.432 39.8271V50.226H156.126V34.334H160.194L160.313 36.2287C161.177 34.7697 162.374 34.0402 163.903 34.0402C164.38 34.0402 164.827 34.1039 165.244 34.2312L165.185 38.3143Z" fill="white"/>
<path d="M173.558 44.2188L176.537 34.334H181.156L174.675 52.6935L174.317 53.5307C173.354 55.6066 171.765 56.6445 169.55 56.6445C168.924 56.6445 168.289 56.5515 167.643 56.3654V53.1488L168.298 53.1635C169.113 53.1635 169.719 53.0411 170.116 52.7963C170.523 52.5515 170.841 52.1452 171.07 51.5773L171.576 50.2701L165.93 34.334H170.563L173.558 44.2188Z" fill="white"/>
<path d="M84.3608 80.4121H76.5242L75.0344 84.8184H70.2818L78.3567 63.4331H82.4985L90.6181 84.8184H85.8655L84.3608 80.4121ZM77.731 76.843H83.154L80.4276 68.8382L77.731 76.843Z" fill="white"/>
<path d="M101.092 80.4268C101.092 79.9078 100.829 79.5014 100.302 79.2077C99.7856 78.9041 98.9513 78.6349 97.7992 78.3999C93.9653 77.6067 92.0484 76.0009 92.0484 73.5823C92.0484 72.1723 92.6394 70.9973 93.8213 70.0573C95.0132 69.1075 96.5676 68.6326 98.4845 68.6326C100.531 68.6326 102.164 69.1075 103.386 70.0573C104.618 71.0071 105.233 72.2408 105.233 73.7586H100.928C100.928 73.1515 100.729 72.6521 100.332 72.2604C99.9346 71.859 99.3138 71.6582 98.4696 71.6582C97.7445 71.6582 97.1834 71.8198 96.7861 72.1429C96.3888 72.466 96.1901 72.8773 96.1901 73.3767C96.1901 73.8467 96.4136 74.2286 96.8606 74.5223C97.3175 74.8063 98.0822 75.056 99.1549 75.2714C100.228 75.477 101.131 75.712 101.866 75.9764C104.141 76.7989 105.278 78.2236 105.278 80.2505C105.278 81.6997 104.647 82.8747 103.386 83.7755C102.125 84.6666 100.496 85.1121 98.4994 85.1121C97.1486 85.1121 95.9468 84.8771 94.894 84.4071C93.8511 83.9273 93.0317 83.2762 92.4357 82.4537C91.8398 81.6213 91.5418 80.7254 91.5418 79.7658H95.624C95.6637 80.5198 95.9468 81.0975 96.4732 81.499C96.9996 81.9004 97.7048 82.1011 98.5888 82.1011C99.4132 82.1011 100.034 81.9494 100.451 81.6458C100.878 81.3325 101.092 80.9261 101.092 80.4268Z" fill="white"/>
<path d="M116.795 80.4268C116.795 79.9078 116.531 79.5014 116.005 79.2077C115.489 78.9041 114.654 78.6349 113.502 78.3999C109.668 77.6067 107.751 76.0009 107.751 73.5823C107.751 72.1723 108.342 70.9973 109.524 70.0573C110.716 69.1075 112.27 68.6326 114.187 68.6326C116.233 68.6326 117.867 69.1075 119.089 70.0573C120.321 71.0071 120.936 72.2408 120.936 73.7586H116.631C116.631 73.1515 116.432 72.6521 116.035 72.2604C115.638 71.859 115.017 71.6582 114.173 71.6582C113.447 71.6582 112.886 71.8198 112.489 72.1429C112.092 72.466 111.893 72.8773 111.893 73.3767C111.893 73.8467 112.117 74.2286 112.563 74.5223C113.02 74.8063 113.785 75.056 114.858 75.2714C115.931 75.477 116.834 75.712 117.569 75.9764C119.844 76.7989 120.981 78.2236 120.981 80.2505C120.981 81.6997 120.35 82.8747 119.089 83.7755C117.828 84.6666 116.199 85.1121 114.202 85.1121C112.852 85.1121 111.65 84.8771 110.597 84.4071C109.554 83.9273 108.735 83.2762 108.139 82.4537C107.543 81.6213 107.245 80.7254 107.245 79.7658H111.327C111.367 80.5198 111.65 81.0975 112.176 81.499C112.703 81.9004 113.408 82.1011 114.292 82.1011C115.116 82.1011 115.737 81.9494 116.154 81.6458C116.581 81.3325 116.795 80.9261 116.795 80.4268Z" fill="white"/>
<path d="M123.097 76.7255C123.097 75.149 123.405 73.7439 124.02 72.5101C124.636 71.2763 125.52 70.3217 126.672 69.646C127.834 68.9704 129.18 68.6326 130.71 68.6326C132.885 68.6326 134.658 69.2886 136.028 70.6007C137.409 71.9128 138.179 73.6949 138.338 75.947L138.368 77.0339C138.368 79.4721 137.677 81.4304 136.297 82.909C134.916 84.3777 133.064 85.1121 130.74 85.1121C128.415 85.1121 126.558 84.3777 125.168 82.909C123.787 81.4402 123.097 79.4427 123.097 76.9164V76.7255ZM127.402 77.0339C127.402 78.5418 127.69 79.6973 128.266 80.5002C128.842 81.2933 129.667 81.6899 130.74 81.6899C131.782 81.6899 132.597 81.2982 133.183 80.5149C133.769 79.7217 134.062 78.4586 134.062 76.7255C134.062 75.2469 133.769 74.1013 133.183 73.2886C132.597 72.4758 131.773 72.0695 130.71 72.0695C129.657 72.0695 128.842 72.4758 128.266 73.2886C127.69 74.0915 127.402 75.3399 127.402 77.0339Z" fill="white"/>
<path d="M147.724 81.6899C148.518 81.6899 149.164 81.4745 149.661 81.0436C150.157 80.6128 150.415 80.04 150.435 79.3252H154.473C154.463 80.4023 154.165 81.3912 153.579 82.2921C152.993 83.1831 152.188 83.8784 151.165 84.3777C150.152 84.8673 149.03 85.1121 147.798 85.1121C145.494 85.1121 143.676 84.3924 142.345 82.953C141.015 81.5038 140.349 79.5063 140.349 76.9605V76.6814C140.349 74.2335 141.01 72.28 142.331 70.821C143.652 69.3621 145.464 68.6326 147.768 68.6326C149.785 68.6326 151.399 69.2005 152.61 70.3363C153.832 71.4624 154.453 72.9654 154.473 74.8454H150.435C150.415 74.0229 150.157 73.3571 149.661 72.8479C149.164 72.329 148.508 72.0695 147.694 72.0695C146.691 72.0695 145.931 72.4318 145.414 73.1564C144.908 73.8712 144.655 75.0364 144.655 76.652V77.0927C144.655 78.7279 144.908 79.9029 145.414 80.6177C145.921 81.3325 146.691 81.6899 147.724 81.6899Z" fill="white"/>
<path d="M161.475 84.8184H157.154V68.9263H161.475V84.8184ZM156.901 64.8138C156.901 64.1773 157.115 63.6535 157.542 63.2422C157.979 62.8309 158.57 62.6253 159.315 62.6253C160.05 62.6253 160.636 62.8309 161.073 63.2422C161.51 63.6535 161.728 64.1773 161.728 64.8138C161.728 65.46 161.505 65.9888 161.058 66.4C160.621 66.8113 160.04 67.0169 159.315 67.0169C158.59 67.0169 158.004 66.8113 157.557 66.4C157.12 65.9888 156.901 65.46 156.901 64.8138Z" fill="white"/>
<path d="M174.377 84.8184C174.178 84.4365 174.034 83.9616 173.945 83.3937C172.902 84.5393 171.546 85.1121 169.878 85.1121C168.298 85.1121 166.987 84.6617 165.945 83.7609C164.912 82.86 164.395 81.7242 164.395 80.3533C164.395 78.6691 165.026 77.3766 166.287 76.4758C167.559 75.5749 169.391 75.1196 171.785 75.1098H173.766V74.1992C173.766 73.4648 173.573 72.8773 173.185 72.4367C172.808 71.996 172.207 71.7757 171.382 71.7757C170.657 71.7757 170.086 71.9471 169.669 72.2898C169.262 72.6325 169.058 73.1025 169.058 73.6998H164.753C164.753 72.7794 165.041 71.9275 165.617 71.1442C166.193 70.3608 167.007 69.7488 168.06 69.3082C169.113 68.8578 170.295 68.6326 171.606 68.6326C173.592 68.6326 175.167 69.1271 176.329 70.116C177.501 71.0952 178.087 72.4758 178.087 74.2579V81.1465C178.097 82.6544 178.31 83.7951 178.727 84.5687V84.8184H174.377ZM170.816 81.8661C171.452 81.8661 172.038 81.7291 172.574 81.4549C173.111 81.1709 173.508 80.7939 173.766 80.3239V77.592H172.157C170.002 77.592 168.855 78.3264 168.716 79.7952L168.701 80.0449C168.701 80.5736 168.889 81.0094 169.267 81.3521C169.644 81.6948 170.161 81.8661 170.816 81.8661Z" fill="white"/>
<path d="M186.549 65.0194V68.9263H189.305V72.0401H186.549V79.9714C186.549 80.5589 186.663 80.98 186.892 81.2346C187.12 81.4892 187.557 81.6165 188.203 81.6165C188.679 81.6165 189.102 81.5822 189.469 81.5136V84.7302C188.625 84.9848 187.756 85.1121 186.862 85.1121C183.842 85.1121 182.303 83.6091 182.243 80.603V72.0401H179.889V68.9263H182.243V65.0194H186.549Z" fill="white"/>
<path d="M199.123 85.1121C196.759 85.1121 194.833 84.3973 193.343 82.9677C191.863 81.5381 191.123 79.6336 191.123 77.2542V76.843C191.123 75.2469 191.436 73.8222 192.061 72.5689C192.687 71.3057 193.571 70.3363 194.713 69.6607C195.865 68.9753 197.177 68.6326 198.647 68.6326C200.852 68.6326 202.585 69.318 203.846 70.6888C205.117 72.0597 205.753 74.0034 205.753 76.5198V78.253H195.488C195.627 79.2909 196.044 80.1232 196.74 80.7499C197.445 81.3766 198.334 81.6899 199.406 81.6899C201.065 81.6899 202.361 81.0975 203.295 79.9127L205.41 82.248C204.765 83.1489 203.891 83.8539 202.788 84.363C201.686 84.8624 200.464 85.1121 199.123 85.1121ZM198.632 72.0695C197.777 72.0695 197.082 72.3534 196.546 72.9214C196.019 73.4893 195.682 74.302 195.533 75.3595H201.522V75.0217C201.502 74.0817 201.244 73.3571 200.747 72.8479C200.251 72.329 199.545 72.0695 198.632 72.0695Z" fill="white"/>
<path d="M216.942 80.4268C216.942 79.9078 216.679 79.5014 216.152 79.2077C215.636 78.9041 214.801 78.6349 213.649 78.3999C209.815 77.6067 207.898 76.0009 207.898 73.5823C207.898 72.1723 208.489 70.9973 209.671 70.0573C210.863 69.1075 212.418 68.6326 214.335 68.6326C216.381 68.6326 218.014 69.1075 219.236 70.0573C220.468 71.0071 221.084 72.2408 221.084 73.7586H216.778C216.778 73.1515 216.579 72.6521 216.182 72.2604C215.785 71.859 215.164 71.6582 214.32 71.6582C213.595 71.6582 213.033 71.8198 212.636 72.1429C212.239 72.466 212.04 72.8773 212.04 73.3767C212.04 73.8467 212.264 74.2286 212.711 74.5223C213.168 74.8063 213.932 75.056 215.005 75.2714C216.078 75.477 216.982 75.712 217.717 75.9764C219.991 76.7989 221.128 78.2236 221.128 80.2505C221.128 81.6997 220.498 82.8747 219.236 83.7755C217.975 84.6666 216.346 85.1121 214.349 85.1121C212.999 85.1121 211.797 84.8771 210.744 84.4071C209.701 83.9273 208.882 83.2762 208.286 82.4537C207.69 81.6213 207.392 80.7254 207.392 79.7658H211.474C211.514 80.5198 211.797 81.0975 212.323 81.499C212.85 81.9004 213.555 82.1011 214.439 82.1011C215.263 82.1011 215.884 81.9494 216.301 81.6458C216.728 81.3325 216.942 80.9261 216.942 80.4268Z" fill="white"/>
</svg>
