<svg xmlns="http://www.w3.org/2000/svg" width="26" height="26" viewBox="0 0 26 26">
    <path fill="#FFF" fill-rule="evenodd" d="M14.585 15.762c-.333-.325-1.056.054-1.446-.162-.89-.434-.723-.272-.945-.976-.167-.597-.779-.109-1.112-.543l-.39-.542c-.278-.38-.556-.054-.945-.217-.445-.217-.89-.542-1.168-.108-.111.162-.834 1.41-1 1.518-.279.163-.557.271-.557.596 0 .705-.111 1.03.167 1.247.945.705.778.597.778 1.085 0 .596 1.113.596 1.224 1.139.39 2.331.39 1.789.111 2.765-.222.596.612.488.5 1.084-.222 1.139-.389.705 1.057 2.169.278.325 1.001.217 1.001-.325 0-1.139.111-.868-.5-1.627-.167-.217-.111-.542.167-.705.166-.108.556-.217.611-.38 1.28-1.68 1.057-1.138 1.001-2.548.835.271.723.271 1.28-.38.222-.27 0-1.246.166-1.572l.334-.705c.222-.325-.056-.542-.334-.813M13 24.917C6.446 24.917 1.083 19.554 1.083 13c0-1.408.271-2.817.705-4.063.975 2.438.379 1.734 2.437 2.871.325.163.758 0 .813-.379.324-1.137.324-1.679.866-1.679 1.896 0 1.138.162 3.034-.867.487-.27.108-.758.541-1.029 2.275-1.57 1.409-1.137 3.25-1.679.325-.108.488-.487.38-.813-.326-.704 1.245-1.679.162-2.112-2.275-.975-1.68-.867-3.142-.867-.108 0-.216.054-.325.109-1.517 1.137-.92 1.029-3.196.379C8.504 1.733 10.671 1.083 13 1.083c2.98 0 5.688 1.084 7.746 2.871-.975.704.92 1.246-.433 1.95-.38.217-.38.758-.055.975.109.054.542.38.596.434 1.409.595 2.004 1.029 2.384.595.108-.108.27-.162.379-.216.216.433.433.866.595 1.354-.379-.163-.65-.271-.866 0-.271.27-.433.542-.759.433-.433-.108-.974-.162-.974-.65 0-.325-.325-.542-.65-.487-1.626.433-1.03.379-2.33.379-.487 0-.487.433-.595.867-.109.595-1.571.812-1.517 1.516.27 2.33-.108 1.625 1.462 3.034.596.541 1.68-.867 2.384 0 .216.216.487.162.812.162v1.3c0 .108.054.217.109.325.704.975.65.704.216 1.842-.216.541.433.596.325 1.083l-.054.27c-.108.597.65.543.65 1.138-2.113 2.817-5.58 4.659-9.425 4.659M13 0C5.85 0 0 5.85 0 13s5.85 13 13 13 13-5.85 13-13S20.15 0 13 0"/>
</svg>
