<?xml version="1.0" encoding="UTF-8"?>
<svg width="17px" height="23px" viewBox="0 0 17 23" version="1.1" xmlns="http://www.w3.org/2000/svg" xmlns:xlink="http://www.w3.org/1999/xlink">
    <!-- Generator: Sketch 63.1 (92452) - https://sketch.com -->
    <title>Milestones</title>
    <desc>Created with Sketch.</desc>
    <g id="Symbols" stroke="none" stroke-width="1" fill="none" fill-rule="evenodd">
        <g id="4-buttons-no-text" transform="translate(-222.000000, -13.000000)" fill="#737A81">
            <g id="Milestones" transform="translate(222.000000, 13.000000)">
                <path d="M5.93532692,9.78181154 L2.81528846,6.66088846 L4.06613462,5.41004231 L5.93532692,7.28011923 L10.5609808,2.65446538 L11.8118269,3.90531154 L5.93532692,9.78181154 Z M14.0410577,6.36719615 C13.9747115,6.23185 13.9747115,6.07350385 14.0410577,5.93815769 L16.6029038,0.702119231 C16.76125,0.37835 16.5250577,-0.000265384615 16.1641346,-0.000265384615 L0.885057692,-0.000265384615 L0.885057692,0.000619230769 C0.395865385,0.000619230769 0.000442307692,0.396926923 0.000442307692,0.885234615 L0.000442307692,21.23935 C0.000442307692,21.7276577 0.395865385,22.1239654 0.885057692,22.1239654 C1.37425,22.1239654 1.76967308,21.7276577 1.76967308,21.23935 L1.76967308,12.3056192 L16.1641346,12.3056192 C16.5250577,12.3056192 16.76125,11.9270038 16.6029038,11.6032346 L14.0410577,6.36719615 Z" id="Fill-1"></path>
            </g>
        </g>
    </g>
</svg>