<?xml version="1.0" encoding="UTF-8"?>
<svg width="22px" height="24px" viewBox="0 0 22 24" version="1.1" xmlns="http://www.w3.org/2000/svg" xmlns:xlink="http://www.w3.org/1999/xlink">
    <!-- Generator: Sketch 63.1 (92452) - https://sketch.com -->
    <title>Map</title>
    <desc>Created with Sketch.</desc>
    <g id="Symbols" stroke="none" stroke-width="1" fill="none" fill-rule="evenodd">
        <g id="4-buttons-no-text" transform="translate(-88.000000, -11.000000)" fill="#737A81">
            <g id="Map" transform="translate(88.000000, 11.000000)">
                <g id="Group-7" transform="translate(0.920000, 0.892857)">
                    <path d="M10.3022586,7.35569515 L10.2979871,7.35569515 C9.41551,7.35569515 8.69876429,6.66092474 8.69876429,5.80365434 C8.69876429,4.94638393 9.41551,4.25161352 10.2979871,4.25161352 C11.1813186,4.25161352 11.8972131,4.94638393 11.8972131,5.80365434 C11.8989186,6.65926658 11.1847357,7.35486607 10.3022586,7.35569515 M15.7825014,3.31640944 C14.8718329,1.46589923 13.0257214,0.216473214 10.92247,0.0249553571 C10.5064329,-0.00820790816 10.0895414,-0.00820790816 9.67521286,0.0249553571 C7.57110714,0.216473214 5.72499571,1.46589923 4.81347286,3.31640944 C3.80370714,5.26889668 3.92672429,7.59364158 5.13810143,9.43503189 L9.58038714,16.200338 C9.83411,16.5850319 10.36035,16.697787 10.7567386,16.4515497 C10.8609614,16.3868814 10.9498071,16.301486 11.0155871,16.200338 L15.4578729,9.43503189 C16.6701043,7.59364158 16.7939757,5.26889668 15.7825014,3.31640944" id="Fill-1"></path>
                    <path d="M20.4752637,20.55625 L18.6974951,14.2444515 C18.4198523,13.2578444 17.4972237,12.5746811 16.4438894,12.5746811 L15.4221637,12.5746811 L12.4552294,17.0940051 C12.2561809,17.3949617 11.9870809,17.6561224 11.6778294,17.8484694 C11.2652094,18.1046556 10.788518,18.2397959 10.2990123,18.2397959 C9.42166086,18.2397959 8.61436086,17.8111607 8.14023229,17.0915179 L5.17415229,12.5746811 L4.08664657,12.5746811 C3.03416657,12.5746811 2.111538,13.2578444 1.83389514,14.2444515 L0.0552722857,20.55625 C-0.212973429,21.5063776 0.524275143,22.4440689 1.54087514,22.4440689 L18.9905151,22.4440689 C20.0062609,22.4440689 20.7426551,21.5063776 20.4752637,20.55625" id="Fill-4"></path>
                </g>
            </g>
        </g>
    </g>
</svg>