<?xml version="1.0" encoding="UTF-8"?>
<svg width="21px" height="21px" viewBox="0 0 21 21" version="1.1" xmlns="http://www.w3.org/2000/svg" xmlns:xlink="http://www.w3.org/1999/xlink">
    <!-- Generator: Sketch 63.1 (92452) - https://sketch.com -->
    <title>Chart</title>
    <desc>Created with Sketch.</desc>
    <g id="Symbols" stroke="none" stroke-width="1" fill="none" fill-rule="evenodd">
        <g id="4-buttons-no-text" transform="translate(-155.000000, -13.000000)">
            <g id="Chart" transform="translate(156.000000, 14.000000)">
                <g id="Group">
                    <path d="M0,0 L0,18.0424399 C0,18.5163979 0.38786087,18.9 0.866113043,18.9 L18.9,18.9" id="Stroke-1" stroke="#737A81" stroke-width="1.8" stroke-linecap="round"></path>
                    <path d="M6.22521,5.589 L4.28571,5.589 C3.82671,5.589 3.45501,5.9607 3.45501,6.4188 L3.45501,15.5592 C3.45501,16.0173 3.82671,16.389 4.28571,16.389 L6.22521,16.389 C6.68421,16.389 7.05501,16.0173 7.05501,15.5592 L7.05501,6.4188 C7.05501,5.9607 6.68421,5.589 6.22521,5.589" id="Fill-3" fill="#737A81"></path>
                    <path d="M11.70261,0.189 L9.73161,0.189 C9.28251,0.189 8.91711,0.5535 8.91711,1.0035 L8.91711,15.5745 C8.91711,16.0245 9.28251,16.389 9.73161,16.389 L11.70261,16.389 C12.15261,16.389 12.51711,16.0245 12.51711,15.5745 L12.51711,1.0035 C12.51711,0.5535 12.15261,0.189 11.70261,0.189" id="Fill-5" fill="#737A81"></path>
                    <path d="M17.19225,3.789 L15.16635,3.789 C14.73255,3.789 14.37975,4.1418 14.37975,4.5765 L14.37975,15.6015 C14.37975,16.0362 14.73255,16.389 15.16635,16.389 L17.19225,16.389 C17.62605,16.389 17.97975,16.0362 17.97975,15.6015 L17.97975,4.5765 C17.97975,4.1418 17.62605,3.789 17.19225,3.789" id="Fill-7" fill="#737A81"></path>
                </g>
            </g>
        </g>
    </g>
</svg>