<?xml version="1.0" encoding="UTF-8"?>
<svg width="397px" height="50px" viewBox="0 0 397 50" version="1.1" xmlns="http://www.w3.org/2000/svg" xmlns:xlink="http://www.w3.org/1999/xlink">
    <!-- Generator: Sketch 53.1 (72631) - https://sketchapp.com -->
    <title>Group</title>
    <desc>Created with Sketch.</desc>
    <defs>
        <polygon id="path-1" points="0.0168253968 0.175423729 158.98009 0.175423729 158.98009 26.8361582 0.0168253968 26.8361582"></polygon>
    </defs>
    <g id="Symbols" stroke="none" stroke-width="1" fill="none" fill-rule="evenodd">
        <g id="header-01" transform="translate(-37.000000, -27.000000)">
            <g id="Group" transform="translate(37.000000, 27.000000)">
                <path d="M180.5,0 L180.5,42" id="Line-2" stroke="#FFFFFF"></path>
                <g id="Bloomberg_logo_white-CC">
                    <g id="Group-3" transform="translate(0.000000, 23.163842)">
                        <mask id="mask-2" fill="white">
                            <use xlink:href="#path-1"></use>
                        </mask>
                        <g id="Clip-2"></g>
                        <path d="M158.216217,10.919209 L158.216217,7.52344633 L157.478704,7.52344633 C157.425984,8.10762712 157.399624,8.37259887 156.925709,8.37259887 C156.715392,8.37259887 156.583873,8.31949153 156.320556,8.16073446 C155.87272,7.92146893 155.161566,7.65649718 154.239815,7.65649718 C151.764238,7.65649718 150.711249,9.48700565 150.711249,11.2375706 C150.711249,13.8372881 152.580831,14.4471751 154.266175,15.0042373 C155.345524,15.3225989 157.242026,15.5618644 157.242026,16.9675141 C157.242026,17.8163842 156.372995,18.6655367 155.003968,18.6655367 C154.134656,18.6655367 153.212344,18.320339 152.554471,17.6838983 C151.659079,16.8615819 151.50064,15.8805085 151.343042,15.0313559 L150.578889,15.0313559 L150.578889,19.0632768 L151.343042,19.0632768 C151.316683,18.8774011 151.290323,18.3468927 151.764238,18.3468927 C151.949037,18.3468927 152.185714,18.5059322 152.60719,18.7449153 C152.764788,18.8508475 153.71346,19.3819209 154.924048,19.3819209 C157.795021,19.3819209 158.98009,17.1265537 158.98009,15.3757062 C158.98009,12.9355932 156.952069,12.3514124 155.687921,11.980791 L154.897968,11.7680791 C154.161016,11.5827684 153.291984,11.2641243 153.054466,11.0516949 C152.738989,10.7867232 152.554471,10.3621469 152.554471,9.96412429 C152.554471,9.14180791 153.318344,8.39887006 154.423772,8.39887006 C155.082767,8.39887006 155.84636,8.63785311 156.372995,9.03587571 C157.136868,9.61949153 157.294466,10.2299435 157.478704,10.919209 L158.216217,10.919209 Z M142.206011,10.600565 C142.310328,9.53983051 142.468767,8.26666667 144.311989,8.26666667 C146.023693,8.26666667 146.103333,9.56638418 146.182413,10.4946328 L146.182413,12.0336158 L142.17881,12.0336158 L142.206011,10.600565 Z M149.658259,12.8031073 C149.47346,11.609322 149.289503,10.4418079 148.236513,9.30084746 C147.235122,8.21355932 145.786175,7.65649718 144.311989,7.65649718 C140.888582,7.65649718 138.492646,10.1759887 138.492646,13.4926554 C138.492646,16.7019774 140.783423,19.3819209 144.523148,19.3819209 C147.709037,19.3819209 148.920466,17.180226 149.525899,16.0127119 L148.868026,15.6940678 C148.209312,16.7556497 147.103884,18.5596045 144.864704,18.5596045 C142.231529,18.5596045 142.15245,15.9067797 142.12637,14.8983051 C142.100011,14.1824859 142.12637,13.4926554 142.12637,12.8031073 L149.658259,12.8031073 Z M132.673021,3.09350282 C132.673021,4.15508475 133.515693,5.0039548 134.568402,5.0039548 C135.621672,5.0039548 136.464344,4.15508475 136.464344,3.09350282 C136.464344,2.03248588 135.621672,1.18361582 134.568402,1.18361582 C133.515693,1.18361582 132.673021,2.03248588 132.673021,3.09350282 Z M131.487672,8.66440678 L133.278175,8.66440678 L133.278175,18.3734463 L131.487672,18.3734463 L131.487672,19.0632768 L138.255968,19.0632768 L138.255968,18.3734463 L136.570344,18.3734463 L136.570344,7.73615819 C135.332556,7.81553672 134.647481,7.86836158 133.989608,7.92146893 C133.304534,7.9480226 132.673021,7.97429379 131.487672,7.97429379 L131.487672,8.66440678 Z M127.406111,13.2799435 C127.458831,16.490113 127.116153,18.5059322 125.352011,18.5059322 C124.35146,18.5059322 123.376429,17.6310734 122.876434,16.6488701 C122.402519,15.6940678 122.323439,14.6070621 122.323439,13.5454802 C122.323439,10.5740113 123.29763,9.61949153 123.903063,9.14180791 C124.29818,8.84971751 124.745735,8.63785311 125.246011,8.63785311 C126.483799,8.63785311 126.905836,9.72542373 127.089794,10.4418079 C127.327312,11.3700565 127.37919,12.3251412 127.406111,13.2799435 Z M122.533757,7.73615819 C120.848413,7.97429379 120.585376,7.97429379 117.425005,7.97429379 L117.425005,8.69067797 L119.136709,8.69067797 L119.136709,26.0932203 L117.425005,26.0932203 L117.425005,26.8361582 L124.614217,26.8361582 L124.614217,26.0932203 L122.481317,26.0932203 L122.481317,17.4714689 C123.192471,18.320339 124.114222,19.3819209 126.036243,19.3819209 C128.248783,19.3819209 129.380852,18.029096 129.881127,17.3655367 C130.907757,15.959887 131.039836,14.6864407 131.039836,13.7045198 C131.039836,9.38107345 128.116984,7.65649718 125.878365,7.65649718 C124.061783,7.65649718 123.192471,8.71723164 122.481317,9.59293785 L122.533757,7.73615819 Z M113.870079,13.3070621 C113.896439,15.9067797 113.896439,18.8248588 111.289344,18.8248588 C110.130915,18.8248588 109.419762,18.1350282 109.103444,17.4980226 C108.893127,17.1265537 108.629529,16.5694915 108.629529,13.4129944 C108.629529,11.0782486 108.682249,8.31949153 111.262984,8.31949153 C112.316815,8.31949153 113.106767,8.82316384 113.528243,9.77881356 C113.686122,10.1231638 113.84372,10.4946328 113.870079,13.3070621 Z M117.451926,13.2799435 C117.188328,9.08898305 113.686122,7.65649718 111.289344,7.65649718 C108.60345,7.65649718 104.969444,9.35451977 104.969444,13.4661017 C104.969444,16.4370056 107.128984,19.3545198 111.368143,19.3545198 C115.186667,19.3545198 116.766852,16.7813559 117.135608,15.7480226 C117.425847,14.9776836 117.504646,14.1031073 117.451926,13.2799435 Z M99.2552593,7.73615819 C97.5432751,7.92146893 95.8052116,7.97429379 94.0674286,7.97429379 L94.0674286,8.66440678 L95.8576508,8.66440678 L95.8576508,18.3734463 L94.0674286,18.3734463 L94.0674286,19.0632768 L101.361799,19.0632768 L101.361799,18.3734463 L99.1761799,18.3734463 L99.1761799,13.3336158 C99.1761799,12.2720339 99.3864974,10.8398305 100.229169,9.67231638 C100.229169,9.67231638 101.071841,8.58474576 101.440878,8.58474576 C101.624836,8.58474576 101.809635,8.71723164 101.809635,8.84971751 C101.809635,8.9299435 101.730836,9.00932203 101.677275,9.11525424 C101.519677,9.32711864 101.334878,9.61949153 101.334878,10.0966102 C101.334878,10.8663842 101.941153,11.6621469 103.020222,11.6621469 C104.364011,11.6621469 104.785206,10.600565 104.785206,9.85819209 C104.785206,8.82316384 104.100413,7.65649718 102.467508,7.65649718 C101.388159,7.65649718 100.624566,8.10762712 100.018852,8.82316384 C99.7019735,9.16836158 99.4655767,9.59293785 99.2016984,10.0172316 L99.2552593,7.73615819 Z M84.876836,0.175423729 C84.4292804,0.228531073 83.9020847,0.30819209 82.427619,0.387570621 C81.3474286,0.440677966 80.452037,0.440677966 79.7414444,0.440677966 L79.7414444,1.15706215 L81.6373862,1.15706215 L81.6373862,18.3734463 L79.7414444,18.3734463 L79.7414444,19.0632768 L86.4564603,19.0632768 L86.4564603,18.3734463 L84.8507566,18.3734463 L84.8507566,13.5454802 C84.876836,12.0336158 84.9023545,10.3358757 86.4040212,9.30084746 C86.7988571,9.00932203 87.3254921,8.82316384 87.905127,8.82316384 C89.3532328,8.82316384 89.4855926,10.0172316 89.4583915,11.3700565 L89.4583915,18.3734463 L88.0102857,18.3734463 L88.0102857,19.0632768 L94.4622646,19.0632768 L94.4622646,18.3734463 L92.7244815,18.3734463 L92.7244815,11.2641243 C92.7244815,10.3887006 92.7505608,9.48700565 92.0130476,8.63785311 C91.644291,8.21355932 90.8285397,7.65649718 89.2480741,7.65649718 C86.7461376,7.65649718 85.4819894,9.16836158 84.876836,9.91129944 L84.876836,0.175423729 Z M76.9764709,3.51779661 L76.2389577,3.51779661 C74.7117725,6.86073446 73.0791481,7.68305085 71.8940794,8.24011299 L71.8940794,8.66440678 L73.7900212,8.66440678 L73.7373016,16.2516949 C73.7373016,17.4186441 73.7636614,19.3819209 76.4234762,19.3819209 C79.1623704,19.3819209 79.7938836,17.4714689 80.1629206,16.1983051 L79.4254074,16.0392655 C79.1093704,17.1008475 78.6881746,17.9762712 77.8982222,17.9762712 C77.0025503,17.9762712 76.9764709,16.9940678 76.9764709,16.3570621 L76.9764709,8.66440678 L79.2675291,8.66440678 L79.2675291,7.97429379 L76.9764709,7.97429379 L76.9764709,3.51779661 Z M63.0932751,7.73615819 C61.1446138,7.81553672 59.6171481,7.97429379 58.0108836,7.97429379 L58.0108836,8.66440678 L59.8013862,8.66440678 L59.8013862,18.3734463 L58.0108836,18.3734463 L58.0108836,19.0632768 L64.7783386,19.0632768 L64.7783386,18.3734463 L63.0932751,18.3734463 L63.0932751,13.439548 C63.0932751,12.219209 63.0932751,11.7415254 63.1987143,11.290678 C63.5674709,9.77881356 65.0419365,8.87627119 65.9636878,8.87627119 C67.5699524,8.87627119 67.5699524,10.309322 67.5699524,11.7946328 L67.5699524,18.3734463 L66.0952063,18.3734463 L66.0952063,19.0632768 L72.573545,19.0632768 L72.573545,18.3734463 L70.8357619,18.3734463 L70.8357619,11.290678 C70.8357619,10.1231638 70.8357619,8.47881356 68.702582,7.86836158 C67.9914286,7.65649718 67.3857143,7.65649718 67.2011958,7.65649718 C66.6748413,7.65649718 65.9897672,7.73615819 65.1998148,8.05480226 C64.1204656,8.50536723 63.6723492,9.00932203 63.0932751,9.69887006 L63.0932751,7.73615819 Z M52.7969735,15.2432203 C52.7969735,15.9333333 52.8230529,16.7556497 52.0594603,17.3920904 C51.7437037,17.6310734 51.3483069,17.8163842 50.9010317,17.8163842 C49.9792804,17.8163842 49.1099683,17.1008475 49.1099683,15.7737288 C49.1099683,13.4129944 51.4010265,13.2799435 52.7969735,13.2002825 L52.7969735,15.2432203 Z M55.9304233,11.1316384 C55.9304233,10.2033898 55.9570635,8.90338983 54.1662804,8.13418079 C53.4026878,7.81553672 52.4809365,7.65649718 51.5328254,7.65649718 C48.9784497,7.65649718 46.9243492,8.84971751 46.9243492,10.5477401 C46.9243492,11.3966102 47.5297831,12.0073446 48.3990952,12.0073446 C49.2942063,12.0073446 49.8999206,11.3169492 49.8999206,10.5211864 C49.8999206,10.3358757 49.8472011,10.1497175 49.7684021,9.99067797 C49.6893228,9.77881356 49.531164,9.61949153 49.4523651,9.40762712 C49.3996455,9.30084746 49.3735661,9.22118644 49.3735661,9.11525424 C49.3735661,8.87627119 49.7684021,8.3460452 50.9534709,8.3460452 C52.7181746,8.3460452 52.7969735,9.24774011 52.7969735,10.3621469 L52.7969735,12.4579096 C51.1640688,12.6169492 49.0048095,12.8031073 47.5297831,13.8903955 C46.3710741,14.739548 46.0023175,15.8274011 46.0023175,16.6762712 C46.0023175,17.4980226 46.3977143,19.3545198 49.1099683,19.3545198 C51.1640688,19.3545198 52.2700582,18.1350282 52.7969735,17.5245763 C53.1390899,18.2144068 53.7184444,19.3545198 55.2198307,19.3545198 C56.5100582,19.3545198 57.3263704,18.5330508 57.8002857,18.029096 L57.3790899,17.4451977 C57.1684921,17.6045198 56.9048942,17.8429379 56.5888571,17.8429379 C55.9570635,17.8429379 55.9304233,17.0734463 55.9304233,16.4635593 L55.9304233,11.1316384 Z M43.606381,0.175423729 C42.763709,0.334463277 41.7104392,0.414124294 40.762328,0.440677966 C39.8142169,0.467231638 38.9451852,0.467231638 38.4449101,0.467231638 L38.4449101,1.21016949 L40.2881323,1.21016949 L40.2881323,18.3734463 L38.4449101,18.3734463 L38.4449101,19.0632768 L45.3444444,19.0632768 L45.3444444,18.3734463 L43.606381,18.3734463 L43.606381,0.175423729 Z M32.3801958,3.09350282 C32.3801958,4.15508475 33.2228677,5.0039548 34.276418,5.0039548 C35.3299683,5.0039548 36.1723598,4.15508475 36.1723598,3.09350282 C36.1723598,2.03248588 35.3299683,1.18361582 34.276418,1.18361582 C33.2228677,1.18361582 32.3801958,2.03248588 32.3801958,3.09350282 Z M31.1954074,8.66440678 L32.9859101,8.66440678 L32.9859101,18.3734463 L31.1954074,18.3734463 L31.1954074,19.0632768 L37.9631429,19.0632768 L37.9631429,18.3734463 L36.2777989,18.3734463 L36.2777989,7.73615819 C35.040291,7.81553672 34.3554974,7.86836158 33.6970635,7.92146893 C33.0122698,7.9480226 32.3801958,7.97429379 31.1954074,7.97429379 L31.1954074,8.66440678 Z M21.1200794,0.175423729 C20.6722434,0.228531073 20.1456085,0.30819209 18.6708624,0.387570621 C17.5912328,0.440677966 16.6958413,0.440677966 15.9846878,0.440677966 L15.9846878,1.15706215 L17.8809101,1.15706215 L17.8809101,18.3734463 L15.9846878,18.3734463 L15.9846878,19.0632768 L22.6999841,19.0632768 L22.6999841,18.3734463 L21.0934392,18.3734463 L21.0934392,13.5454802 C21.1200794,12.0336158 21.1464392,10.3358757 22.6472646,9.30084746 C23.0421005,9.00932203 23.5690159,8.82316384 24.1483704,8.82316384 C25.5967566,8.82316384 25.7285556,10.0172316 25.7021958,11.3700565 L25.7021958,18.3734463 L24.2538095,18.3734463 L24.2538095,19.0632768 L30.7057884,19.0632768 L30.7057884,18.3734463 L28.9677249,18.3734463 L28.9677249,11.2641243 C28.9677249,10.3887006 28.9940847,9.48700565 28.2565714,8.63785311 C27.8880952,8.21355932 27.0715026,7.65649718 25.4913175,7.65649718 C22.9896614,7.65649718 21.7255132,9.16836158 21.1200794,9.91129944 L21.1200794,0.175423729 Z M6.1359418,1.02429379 L8.47971958,1.02429379 C9.32239153,1.02429379 10.4811005,1.07740113 11.2446931,2.11186441 C11.7449683,2.80141243 11.8764868,3.86299435 11.8764868,5.32175141 C11.8764868,7.60367232 11.2183333,8.55847458 10.8234974,8.84971751 C10.0859841,9.40762712 9.0063545,9.53983051 8.55851852,9.53983051 L6.1359418,9.53983051 L6.1359418,1.02429379 Z M6.1359418,10.309322 L9.71722751,10.309322 C11.1128942,10.309322 12.8512381,10.1759887 14.2202646,9.16836158 C15.9586085,7.89491525 16.0374074,6.09096045 16.0374074,5.42853107 C16.0374074,3.91581921 15.4053333,2.40423729 14.1941852,1.47542373 C12.7721587,0.414124294 11.060455,0.387570621 9.61206878,0.334463277 L0,0.334463277 L0,1.02429379 L2.23833862,1.02429379 L2.23833862,18.3734463 L0,18.3734463 L0,19.0632768 L8.6112381,19.0632768 L8.6112381,18.3734463 L6.1359418,18.3734463 L6.1359418,10.309322 L6.1359418,10.309322 Z" id="Fill-1" fill="#FFFFFE" mask="url(#mask-2)"></path>
                    </g>
                    <path d="M116.835556,21.2435028 C117.38855,21.2435028 118.705138,21.2169492 118.705138,22.7025424 C118.705138,24.3474576 116.835556,25.7799435 113.701265,25.7799435 C110.805053,25.7799435 109.803942,24.2677966 109.803942,23.0740113 C109.803942,22.1985876 110.225138,21.7477401 110.699053,21.2435028 L116.835556,21.2435028 Z M112.016762,11.7200565 C112.016762,9.83644068 112.016762,8.24491525 113.806984,8.24491525 C114.043661,8.24491525 114.860254,8.24491525 115.28145,9.12033898 C115.545328,9.7039548 115.545328,10.2875706 115.545328,11.8262712 C115.545328,13.7096045 115.545328,15.2483051 113.833344,15.2483051 C112.095561,15.2483051 112.016762,13.8158192 112.016762,11.7200565 Z M110.989011,18.0073446 C110.119979,18.0073446 109.356106,17.9805085 109.356106,17.1316384 C109.356106,16.2830508 110.383577,15.7257062 111.199328,15.4073446 C111.752884,15.6725989 112.464037,16.0175141 113.886063,16.0175141 C116.545598,16.0175141 118.783937,14.5584746 118.783937,11.7200565 C118.783937,10.8180791 118.49482,10.3141243 118.204862,9.78361582 C118.283661,9.41214689 118.36246,9.27937853 118.49482,9.27937853 C118.626339,9.27937853 118.652698,9.27937853 118.863016,9.54463277 C119.021175,9.75706215 119.310291,9.88954802 119.626608,9.88954802 C120.390481,9.88954802 120.759238,9.30621469 120.759238,8.6960452 C120.759238,7.92655367 120.180164,7.47570621 119.52145,7.47570621 C119.179053,7.47570621 118.783937,7.60819209 118.46846,7.84689266 C117.967344,8.21836158 117.835825,8.72231638 117.704587,9.12033898 C116.967074,8.48361582 115.966524,7.60819209 113.912143,7.60819209 C111.516206,7.60819209 108.829471,8.96101695 108.829471,11.8525424 C108.829471,13.6299435 109.936021,14.5053672 110.620254,15.0627119 C109.98846,15.2748588 107.93436,16.0175141 107.93436,18.4316384 C107.93436,18.829661 107.986799,19.5723164 108.645513,20.2618644 C109.145788,20.819209 109.540905,20.9251412 110.093619,21.0313559 C109.356106,21.2966102 107.96072,21.7740113 107.96072,23.2596045 C107.96072,24.9045198 109.909661,26.6288136 113.701265,26.6288136 C117.309751,26.6288136 119.995646,24.8248588 119.995646,21.6149718 C119.995646,20.7926554 119.864127,20.1028249 119.337492,19.3601695 C118.38882,17.9805085 117.41491,18.0073446 115.518968,18.0073446 L110.989011,18.0073446 Z M102.615011,7.68757062 C100.903307,7.87344633 99.1652434,7.92655367 97.4271799,7.92655367 L97.4271799,8.61610169 L99.217963,8.61610169 L99.217963,18.3254237 L97.4271799,18.3254237 L97.4271799,19.0152542 L104.721831,19.0152542 L104.721831,18.3254237 L102.536212,18.3254237 L102.536212,13.2853107 C102.536212,12.2240113 102.746529,10.7915254 103.589201,9.62429379 C103.589201,9.62429379 104.432153,8.53672316 104.80063,8.53672316 C104.984587,8.53672316 105.169667,8.66949153 105.169667,8.8019774 C105.169667,8.88163842 105.090587,8.96101695 105.038148,9.06723164 C104.879429,9.27937853 104.695471,9.57118644 104.695471,10.0488701 C104.695471,10.8180791 105.300905,11.6141243 106.381095,11.6141243 C107.724042,11.6141243 108.145519,10.5528249 108.145519,9.80988701 C108.145519,8.77542373 107.460164,7.60819209 105.828101,7.60819209 C104.74819,7.60819209 103.984317,8.05932203 103.378323,8.77542373 C103.062847,9.12033898 102.825328,9.54463277 102.562571,9.96920904 L102.615011,7.68757062 Z M89.7637725,10.5528249 C89.8697725,9.49152542 90.0273704,8.21836158 91.8714339,8.21836158 C93.5831376,8.21836158 93.6619365,9.5180791 93.7410159,10.4466102 L93.7410159,11.9853107 L89.738254,11.9853107 L89.7637725,10.5528249 Z M97.2168624,12.7545198 C97.0320635,11.5607345 96.8481058,10.3937853 95.7951164,9.25282486 C94.7940053,8.16525424 93.345619,7.60819209 91.8714339,7.60819209 C88.4471852,7.60819209 86.0512487,10.1282486 86.0512487,13.4443503 C86.0512487,16.6542373 88.3420265,19.3336158 92.0817513,19.3336158 C95.2679206,19.3336158 96.4793492,17.1316384 97.0845026,15.9644068 L96.4269101,15.6463277 C95.7679153,16.7073446 94.6624868,18.5112994 92.4241481,18.5112994 C89.7901323,18.5112994 89.7113333,15.8584746 89.6849735,14.8502825 C89.6586138,14.1341808 89.6849735,13.4443503 89.6849735,12.7545198 L97.2168624,12.7545198 Z M81.4694127,13.2053672 C81.4694127,16.1502825 81.3897725,18.4581921 79.2835132,18.4581921 C78.3354021,18.4581921 77.3082116,17.9011299 76.676418,16.8932203 C76.0177037,15.8584746 75.8861852,14.399435 75.8861852,13.4974576 C75.8861852,12.7810734 75.9916243,11.3220339 76.5706984,10.2610169 C77.1236931,9.25282486 78.2563228,8.43050847 79.2835132,8.43050847 C80.9158571,8.43050847 81.179455,9.94265537 81.2846138,10.4731638 C81.4166931,11.2158192 81.4694127,12.4361582 81.4694127,13.2053672 Z M76.0177037,0.12740113 C74.9117143,0.31299435 73.7002857,0.392372881 73.1739312,0.41920904 L70.8825926,0.41920904 L70.8825926,1.16186441 L72.7260952,1.16186441 L72.7260952,18.3254237 L70.8825926,18.3254237 L70.8825926,19.0152542 L75.9916243,19.0152542 L75.9916243,17.3440678 C76.676418,18.1929379 77.782127,19.3070621 79.8625873,19.3070621 C81.3634127,19.3070621 82.7063598,18.8559322 83.8389894,17.3706215 C85.0243386,15.8584746 85.1031376,14.3728814 85.1031376,13.6036723 C85.1031376,9.30621469 82.1800053,7.60819209 79.8095873,7.60819209 C77.782127,7.60819209 76.8079365,8.66949153 76.0177037,9.54463277 L76.0177037,0.12740113 Z M54.871545,7.68757062 C53.3970794,7.87344633 52.8440847,7.92655367 49.8421534,7.92655367 L49.8421534,8.61610169 L51.5799365,8.61610169 L51.5799365,18.3254237 L49.8421534,18.3254237 L49.8421534,19.0152542 L56.4783704,19.0152542 L56.4783704,18.3254237 L54.8454656,18.3254237 L54.8454656,12.7016949 C54.9242646,11.4548023 54.9769841,10.5793785 55.6090582,9.78361582 C56.0568942,9.25282486 56.7416878,8.82853107 57.5316402,8.82853107 C58.9533862,8.82853107 59.111545,10.0754237 59.111545,11.5872881 L59.111545,18.3254237 L57.6892381,18.3254237 L57.6892381,19.0152542 L63.8781799,19.0152542 L63.8781799,18.3254237 L62.2979947,18.3254237 L62.2979947,13.1525424 C62.2979947,11.7466102 62.3507143,10.5528249 63.3251852,9.59774011 C63.8518201,9.09378531 64.4836138,8.8019774 65.0629683,8.8019774 C66.5640741,8.8019774 66.5640741,10.1019774 66.5640741,11.4548023 L66.5640741,18.3254237 L65.1156878,18.3254237 L65.1156878,19.0152542 L71.4622275,19.0152542 L71.4622275,18.3254237 L69.8298836,18.3254237 L69.8298836,11.3751412 C69.7505238,9.94265537 69.7244444,7.60819209 66.2483175,7.60819209 C63.6936614,7.60819209 62.6931111,9.22627119 62.2979947,9.88954802 C61.6922804,8.74887006 61.0338466,7.58163842 58.663709,7.58163842 C56.6101693,7.58163842 55.635418,8.72231638 54.871545,9.62429379 L54.871545,7.68757062 Z M46.0239101,13.2587571 C46.0499894,15.8584746 46.0499894,18.7765537 43.4426138,18.7765537 C42.2839048,18.7765537 41.5730317,18.0867232 41.2572751,17.45 C41.0466772,17.0785311 40.7833598,16.5217514 40.7833598,13.3646893 C40.7833598,11.030226 40.8360794,8.27146893 43.4165344,8.27146893 C44.4698042,8.27146893 45.2597566,8.77542373 45.6812328,9.73050847 C45.8393915,10.0754237 45.9972698,10.4466102 46.0239101,13.2587571 Z M49.6049153,13.2322034 C49.3418783,9.04067797 45.8393915,7.60819209 43.4426138,7.60819209 C40.7564392,7.60819209 37.1227143,9.30621469 37.1227143,13.4177966 C37.1227143,16.3889831 39.2819735,19.3070621 43.5219735,19.3070621 C47.3402169,19.3070621 48.9204021,16.7338983 49.2891587,15.6991525 C49.578836,14.9299435 49.6576349,14.0545198 49.6049153,13.2322034 Z M32.5750899,13.2587571 C32.6011693,15.8584746 32.6011693,18.7765537 29.9940741,18.7765537 C28.8356455,18.7765537 28.1244921,18.0867232 27.808455,17.45 C27.5975767,17.0785311 27.3345397,16.5217514 27.3345397,13.3646893 C27.3345397,11.030226 27.3872593,8.27146893 29.9679947,8.27146893 C31.0212646,8.27146893 31.8112169,8.77542373 32.2324127,9.73050847 C32.3905714,10.0754237 32.5484497,10.4466102 32.5750899,13.2587571 Z M36.1566561,13.2322034 C35.8930582,9.04067797 32.3905714,7.60819209 29.9940741,7.60819209 C27.3081799,7.60819209 23.6738942,9.30621469 23.6738942,13.4177966 C23.6738942,16.3889831 25.8331534,19.3070621 30.0731534,19.3070621 C33.8916772,19.3070621 35.471582,16.7338983 35.8403386,15.6991525 C36.1300159,14.9299435 36.2090952,14.0545198 36.1566561,13.2322034 Z M21.6464339,0.12740113 C20.8037619,0.286440678 19.7504921,0.366101695 18.802381,0.392372881 C17.8542698,0.41920904 16.9852381,0.41920904 16.484963,0.41920904 L16.484963,1.16186441 L18.3284656,1.16186441 L18.3284656,18.3254237 L16.484963,18.3254237 L16.484963,19.0152542 L23.3844974,19.0152542 L23.3844974,18.3254237 L21.6464339,18.3254237 L21.6464339,0.12740113 Z M6.18866138,1.02909605 L8.24248148,1.02909605 C10.4020212,1.02909605 11.5080106,1.55988701 11.5080106,5.06129944 C11.5080106,8.16525424 10.4020212,8.90819209 8.34792063,8.90819209 L6.18866138,8.90819209 L6.18866138,1.02909605 Z M6.18866138,9.65084746 L8.63759788,9.65084746 C9.4014709,9.65084746 10.5074603,9.73050847 11.2710529,10.6855932 C11.903127,11.4548023 12.0085661,12.7016949 12.0085661,14.0545198 C12.0085661,15.1951977 11.9292063,16.2564972 11.4555714,17.0522599 C10.744418,18.2194915 9.69086772,18.3254237 8.82183598,18.3254237 L6.18866138,18.3254237 L6.18866138,9.65084746 Z M0.0527195767,0.286440678 L0.0527195767,0.976271186 L2.2910582,0.976271186 L2.2910582,18.3254237 L0.0527195767,18.3254237 L0.0527195767,19.0152542 L8.26884127,19.0152542 C11.0340952,18.9887006 14.3520635,18.9887006 15.7740899,16.309322 C16.1955661,15.5135593 16.3010053,14.6912429 16.3010053,14.0545198 C16.3010053,11.3485876 14.3520635,10.0223164 12.5352011,9.54463277 C11.903127,9.38559322 11.2446931,9.30621469 10.5598995,9.22627119 C11.1656138,9.14689266 11.771328,9.04067797 12.3506825,8.88163842 C14.1678254,8.32429379 15.4316931,6.97146893 15.4316931,4.92881356 C15.4316931,3.5759887 14.9577778,2.1700565 13.2987937,1.18841808 C11.8504074,0.366101695 10.1650635,0.31299435 8.63759788,0.286440678 L0.0527195767,0.286440678 L0.0527195767,0.286440678 Z" id="Fill-4" fill="#FFFFFE"></path>
                </g>
                <g id="ACCC_Logo-CC" transform="translate(200.000000, 0.000000)">
                    <path d="M7.52147635,0.455172414 L0.000163485477,17.7361655 L2.69979917,17.7361655 L4.38778672,13.464 L12.5121975,13.464 L14.2235635,17.7361655 L16.9231992,17.7361655 L9.61899502,0.455172414 L7.52147635,0.455172414 Z M8.4383029,3.48231724 L8.48620415,3.48231724 L11.6676315,11.4137379 L5.20684896,11.4137379 L8.4383029,3.48231724 L8.4383029,3.48231724 Z" id="Fill-1" fill="#2473AB"></path>
                    <path d="M18.7911842,6.16651034 L20.8164423,6.16651034 L20.8164423,7.97246897 L20.865488,7.97246897 C20.9122448,7.81026207 21.0379651,7.60617931 21.2382349,7.36187586 C21.4385046,7.11856552 21.6966481,6.88634483 22.0093959,6.66670345 C22.3231245,6.44706207 22.6926017,6.26002759 23.1188083,6.10576552 C23.5438705,5.95133793 24.0145452,5.87354483 24.5287071,5.87354483 C25.3799759,5.87354483 26.0955519,6.05263448 26.674127,6.41097931 C27.2527021,6.76915862 27.72681,7.3056 28.097268,8.0208 C28.4667452,7.3056 28.9885909,6.76915862 29.6641129,6.41097931 C30.3384905,6.05263448 31.0216963,5.87354483 31.7127494,5.87354483 C32.5962249,5.87354483 33.3196481,6.02002759 33.8825286,6.3129931 C34.4445917,6.60595862 34.8863295,6.99227586 35.2079054,7.47227586 C35.5294813,7.95211034 35.7510041,8.49748966 35.8723104,9.10808276 C35.9924722,9.71751724 36.0524714,10.348469 36.0524714,10.9996138 L36.0524714,17.7355034 L33.8825286,17.7355034 L33.8825286,11.2924138 C33.8825286,10.853131 33.8548996,10.4295724 33.7980066,10.0228966 C33.7424216,9.61622069 33.6255295,9.25787586 33.4486382,8.94918621 C33.2717469,8.63933793 33.0224315,8.39155862 32.7008556,8.20452414 C32.3792797,8.01748966 31.9542174,7.92397241 31.4233801,7.92397241 C30.3785444,7.92397241 29.6317427,8.24954483 29.1811768,8.89953103 C28.7315917,9.55084138 28.5067992,10.3890207 28.5067992,11.4142345 L28.5067992,17.7355034 L26.3370199,17.7355034 L26.3370199,11.6823724 C26.3370199,11.1292138 26.3090639,10.6243862 26.2523344,10.1692138 C26.1967494,9.7142069 26.083127,9.31878621 25.9152274,8.98526897 C25.7460199,8.65175172 25.5045519,8.39155862 25.1918041,8.20452414 C24.8780755,8.01748966 24.456283,7.92397241 23.9267535,7.92397241 C23.5406008,7.92397241 23.1667095,8.00176552 22.8050797,8.15602759 C22.4432863,8.31045517 22.1261245,8.54251034 21.8535942,8.8512 C21.5799195,9.16104828 21.3628108,9.55531034 21.202595,10.0353103 C21.0412349,10.5151448 20.961127,11.0807172 20.961127,11.730869 L20.961127,17.7355034 L18.7911842,17.7355034 L18.7911842,6.16651034" id="Fill-2" fill="#2473AB"></path>
                    <path d="M40.9676622,12.7562483 C40.9676622,13.2609103 41.0755627,13.7205517 41.2925079,14.1351724 C41.5105975,14.5497931 41.7955527,14.9035034 42.1483544,15.196469 C42.5021369,15.4904276 42.911668,15.7180138 43.3779286,15.8802207 C43.8441892,16.0435862 44.3259809,16.1246897 44.8244481,16.1246897 C45.4999701,16.1246897 46.0863925,15.9657931 46.5837154,15.6481655 C47.0823461,15.331531 47.5407593,14.9126069 47.9581378,14.3920552 L49.5982241,15.6605793 C48.3931726,17.2389517 46.7050216,18.0286345 44.5352423,18.0286345 C43.6349278,18.0286345 42.8192988,17.8732138 42.0893361,17.5645241 C41.3570846,17.2558345 40.7384556,16.8288 40.2321411,16.2835862 C39.726971,15.7383724 39.3362407,15.0950069 39.062566,14.3548138 C38.7900357,13.6146207 38.6530349,12.8136828 38.6530349,11.9506759 C38.6530349,11.0888276 38.8021336,10.2878897 39.0993502,9.54653793 C39.3964033,8.80634483 39.8059344,8.16413793 40.3289245,7.61892414 C40.8507701,7.07371034 41.4739768,6.64667586 42.1972365,6.33682759 C42.9193519,6.02813793 43.7073519,5.87387586 44.5596017,5.87387586 C45.5722307,5.87387586 46.4279137,6.05296552 47.1268141,6.40998621 C47.8257145,6.76833103 48.4010199,7.23591724 48.8504415,7.81373793 C49.3000266,8.39172414 49.6260166,9.04303448 49.8274307,9.76617931 C50.0278639,10.4906483 50.127917,11.227531 50.127917,11.9755034 L50.127917,12.7562483 L40.9676622,12.7562483 Z M47.814434,10.9987862 C47.7977585,10.5108414 47.7209203,10.0636138 47.5852274,9.65693793 C47.44839,9.25026207 47.2437062,8.89638621 46.969868,8.59448276 C46.6961934,8.29373793 46.3556531,8.05837241 45.946122,7.88706207 C45.53561,7.71575172 45.0580689,7.63133793 44.5107195,7.63133793 C43.9810266,7.63133793 43.4946573,7.7328 43.0529195,7.93555862 C42.6100373,8.13947586 42.2372905,8.40413793 41.9312456,8.72971034 C41.6263452,9.05428966 41.3892913,9.41710345 41.2213917,9.81467586 C41.0521842,10.2145655 40.9676622,10.6089931 40.9676622,10.9987862 L47.814434,10.9987862 L47.814434,10.9987862 Z" id="Fill-3" fill="#2473AB"></path>
                    <path d="M52.7729485,6.16651034 L54.9427278,6.16651034 L54.9427278,7.9488 L54.990629,7.9488 C55.1353137,7.63895172 55.3288805,7.3584 55.5692041,7.10615172 C55.8106722,6.85373793 56.0800963,6.63856552 56.3771494,6.45947586 C56.6742025,6.28022069 56.9992116,6.13837241 57.3529942,6.03244138 C57.7069402,5.92651034 58.0597419,5.87354483 58.4146689,5.87354483 C58.7673071,5.87354483 59.0890465,5.92204138 59.3782523,6.02002759 L59.2814689,8.38708966 C59.1045776,8.3385931 58.9276863,8.29804138 58.7517759,8.26526897 C58.5748846,8.23266207 58.3979934,8.21693793 58.2211021,8.21693793 C57.1605718,8.21693793 56.3482124,8.51768276 55.7863129,9.11933793 C55.2242498,9.72198621 54.9427278,10.6571586 54.9427278,11.9268414 L54.9427278,17.7355034 L52.7729485,17.7355034 L52.7729485,6.16651034" id="Fill-4" fill="#2473AB"></path>
                    <path d="M61.0971386,2.01732414 C61.0971386,1.57804138 61.2540846,1.19950345 61.5668324,0.882868966 C61.880561,0.565075862 62.2544523,0.406344828 62.6885062,0.406344828 C63.1223967,0.406344828 63.496288,0.565075862 63.8090357,0.882868966 C64.1227643,1.19950345 64.2797104,1.57804138 64.2797104,2.01732414 C64.2797104,2.45677241 64.1227643,2.83531034 63.8090357,3.15177931 C63.496288,3.46957241 63.1223967,3.62830345 62.6885062,3.62830345 C62.2544523,3.62830345 61.880561,3.46957241 61.5668324,3.15177931 C61.2540846,2.83531034 61.0971386,2.45677241 61.0971386,2.01732414 L61.0971386,2.01732414 Z M61.6034531,17.735669 L63.7733959,17.735669 L63.7733959,6.16667586 L61.6034531,6.16667586 L61.6034531,17.735669 Z" id="Fill-5" fill="#2473AB"></path>
                    <path d="M75.242883,9.24182069 C74.8411992,8.81925517 74.4194066,8.49715862 73.9775054,8.27735172 C73.5346232,8.05771034 73.0083635,7.94846897 72.3985627,7.94846897 C71.803312,7.94846897 71.2847361,8.05771034 70.8429983,8.27735172 C70.4010971,8.49715862 70.0317834,8.79906207 69.7345668,9.18091034 C69.4363693,9.56292414 69.2115768,10.0022069 69.0592083,10.4990897 C68.9066763,10.9948138 68.8300017,11.5118897 68.8300017,12.0481655 C68.8300017,12.5856 68.9177934,13.0935724 69.0959925,13.5735724 C69.2717394,14.054731 69.5210548,14.4736552 69.8424672,14.8308414 C70.1642066,15.1891862 70.5492149,15.4695724 70.9999444,15.672331 C71.449366,15.8762483 71.9556805,15.9777103 72.5187245,15.9777103 C73.1296697,15.9777103 73.6515154,15.868469 74.0855693,15.6486621 C74.5194598,15.4290207 74.9211436,15.1079172 75.2906207,14.6843586 L76.8340871,16.2470069 C76.2710432,16.881269 75.6167743,17.3364414 74.8689917,17.6135172 C74.1212091,17.8896 73.3301029,18.0281379 72.4943651,18.0281379 C71.6107261,18.0281379 70.8027809,17.8816552 70.0718373,17.5888552 C69.3407303,17.2958897 68.7096763,16.8857379 68.1790025,16.3562483 C67.6493095,15.8279172 67.238634,15.1936552 66.9505726,14.4523034 C66.6600589,13.7121103 66.5165187,12.8942897 66.5165187,11.999669 C66.5165187,11.1052138 66.6600589,10.2827586 66.9505726,9.53462069 C67.238634,8.78664828 67.6448954,8.14344828 68.1678855,7.60601379 C68.6897311,7.06973793 69.3162075,6.65064828 70.0473145,6.34973793 C70.7784216,6.0489931 71.5940506,5.89804138 72.4943651,5.89804138 C73.3301029,5.89804138 74.1300373,6.0489931 74.893351,6.34973793 C75.6568282,6.65064828 76.3200888,7.11028966 76.8819884,7.72882759 L75.242883,9.24182069" id="Fill-6" fill="#2473AB"></path>
                    <path d="M79.0228307,7.58217931 C79.6337759,7.01329655 80.3403602,6.58510345 81.1438913,6.30124138 C81.9472589,6.01622069 82.751771,5.87304828 83.5551386,5.87304828 C84.3908763,5.87304828 85.109722,5.98013793 85.7128199,6.19084138 C86.3149369,6.40270345 86.8101344,6.68772414 87.1951427,7.04474483 C87.581132,7.40308966 87.8660871,7.81423448 88.0508257,8.27735172 C88.2355643,8.74146207 88.3279336,9.22593103 88.3279336,9.72943448 L88.3279336,15.6362483 C88.3279336,16.0429241 88.3356174,16.4169931 88.3524564,16.7594483 C88.3679876,17.1007448 88.3923469,17.4264828 88.424717,17.7350069 L86.4962423,17.7350069 C86.4473602,17.1492414 86.4239817,16.5634759 86.4239817,15.9775448 L86.3749361,15.9775448 C85.8931444,16.7268414 85.3222531,17.2551724 84.6635701,17.5650207 C84.0047237,17.8737103 83.24141,18.0279724 82.3734656,18.0279724 C81.8437726,18.0279724 81.3374581,17.9548138 80.854522,17.808331 C80.3727303,17.6618483 79.9509378,17.4422069 79.5893079,17.1492414 C79.227678,16.8562759 78.9417419,16.4947862 78.7336249,16.0632828 C78.5243635,15.6329379 78.4197328,15.1327448 78.4197328,14.5625379 C78.4197328,13.8145655 78.5845261,13.1880828 78.9137859,12.6834207 C79.2432091,12.1785931 79.6939386,11.7674483 80.2646664,11.4509793 C80.8344133,11.1331862 81.502088,10.9057655 82.2655651,10.7670621 C83.0288788,10.6285241 83.8445079,10.5598345 84.7126158,10.5598345 L86.3026755,10.5598345 L86.3026755,10.0720552 C86.3026755,9.77908966 86.246927,9.48612414 86.1346124,9.19315862 C86.0222979,8.90035862 85.8530905,8.63553103 85.6282979,8.4 C85.402361,8.16463448 85.1219834,7.97644138 84.7848763,7.83790345 C84.4476058,7.70052414 84.0449411,7.63067586 83.578517,7.63067586 C83.1613021,7.63067586 82.796239,7.67122759 82.4825104,7.75348966 C82.1686183,7.8345931 81.8838266,7.93588966 81.6268274,8.05771034 C81.3685203,8.18035862 81.136044,8.32237241 80.9267826,8.48573793 C80.718829,8.64794483 80.5172515,8.80237241 80.324829,8.94868966 L79.0228307,7.58217931 Z M85.1453618,12.1708138 C84.6312,12.1708138 84.1049402,12.1989517 83.5664191,12.2563862 C83.0288788,12.3128276 82.5380954,12.4232276 82.0963577,12.5854345 C81.6546199,12.7488 81.29299,12.9763862 81.011468,13.2691862 C80.7299461,13.5621517 80.5896755,13.9362207 80.5896755,14.3913931 C80.5896755,15.0594207 80.8111983,15.5382621 81.2529361,15.8310621 C81.6946739,16.1240276 82.2933577,16.2705103 83.0489876,16.2705103 C83.6430938,16.2705103 84.1494083,16.1690483 84.5677676,15.9662897 C84.9851461,15.7623724 85.3222531,15.498869 85.5794158,15.173131 C85.8375593,14.8475586 86.0222979,14.486069 86.1346124,14.0861793 C86.246927,13.6884414 86.3026755,13.2928552 86.3026755,12.9032276 L86.3026755,12.1708138 L85.1453618,12.1708138 L85.1453618,12.1708138 Z" id="Fill-7" fill="#2473AB"></path>
                    <path d="M91.53699,6.16651034 L93.7069328,6.16651034 L93.7069328,7.9488 L93.754834,7.9488 C94.0285087,7.33026207 94.5024531,6.83006897 95.1768307,6.44706207 C95.8523527,6.06504828 96.6311975,5.87354483 97.5158174,5.87354483 C98.061205,5.87354483 98.5886091,5.95911724 99.0949237,6.13042759 C99.6000938,6.30057931 100.042976,6.56524138 100.4203,6.92358621 C100.797461,7.28077241 101.098929,7.74041379 101.324866,8.30251034 C101.549658,8.86361379 101.662136,9.52717241 101.662136,10.2910345 L101.662136,17.7355034 L99.4921934,17.7355034 L99.4921934,10.9016276 C99.4921934,10.3641931 99.4199328,9.90455172 99.2752481,9.52270345 C99.1304,9.14068966 98.9379776,8.8310069 98.6965095,8.59547586 C98.4561859,8.35878621 98.179078,8.1888 97.8653494,8.08286897 C97.5514573,7.97693793 97.2266116,7.92397241 96.8883602,7.92397241 C96.4387751,7.92397241 96.0213967,7.99729655 95.6354075,8.14377931 C95.2492548,8.29009655 94.9119842,8.52231724 94.6227784,8.83878621 C94.3334091,9.15657931 94.1086166,9.55862069 93.9472564,10.0475586 C93.7870407,10.5355034 93.7069328,11.1133241 93.7069328,11.7803586 L93.7069328,17.7355034 L91.53699,17.7355034 L91.53699,6.16651034" id="Fill-8" fill="#2473AB"></path>
                    <path d="M124.563672,4.1894069 C124.08188,3.55514483 123.470772,3.0662069 122.731981,2.72491034 C121.991882,2.38344828 121.228568,2.21230345 120.440732,2.21230345 C119.477149,2.21230345 118.60479,2.39586207 117.825782,2.76198621 C117.045629,3.12811034 116.379099,3.62846897 115.823902,4.26273103 C115.270831,4.8969931 114.84021,5.64165517 114.53531,6.49555862 C114.229265,7.35078621 114.076733,8.26543448 114.076733,9.24215172 C114.076733,10.1536552 114.221417,11.0155034 114.51095,11.8288552 C114.800156,12.6423724 115.217371,13.358731 115.764884,13.9761103 C116.310108,14.5958069 116.977783,15.0835862 117.765783,15.4407724 C118.552311,15.7991172 119.444778,15.9782069 120.440732,15.9782069 C121.422299,15.9782069 122.281251,15.7742897 123.020042,15.3676138 C123.760141,14.961931 124.386617,14.3918897 124.900616,13.6596414 L126.853777,15.1478069 C126.725604,15.3268966 126.499831,15.5837793 126.179399,15.9172966 C125.857823,16.2508138 125.431453,16.584331 124.900616,16.9176828 C124.371086,17.2512 123.731204,17.5441655 122.984566,17.7964138 C122.236783,18.0488276 121.373253,18.1751172 120.392831,18.1751172 C119.043095,18.1751172 117.825782,17.9136 116.740729,17.3932138 C115.655839,16.8726621 114.731165,16.1899034 113.968832,15.3439448 C113.204374,14.4978207 112.622529,13.5412966 112.220846,12.4756966 C111.818998,11.409931 111.617584,10.3315862 111.617584,9.24215172 C111.617584,7.90725517 111.834529,6.6758069 112.268583,5.54366897 C112.702637,4.41368276 113.309005,3.43696552 114.088994,2.61566897 C114.868002,1.7942069 115.805101,1.15547586 116.897675,0.699310345 C117.990412,0.244137931 119.195627,0.0153931034 120.512993,0.0153931034 C121.6381,0.0153931034 122.743098,0.236193103 123.829132,0.674482759 C124.913041,1.11376552 125.80093,1.78973793 126.491983,2.70124138 L124.563672,4.1894069" id="Fill-9" fill="#2473AB"></path>
                    <path d="M128.640346,2.01732414 C128.640346,1.57804138 128.797129,1.19950345 129.109876,0.882868966 C129.423605,0.565075862 129.797496,0.406344828 130.23155,0.406344828 C130.665604,0.406344828 131.039495,0.565075862 131.35208,0.882868966 C131.665972,1.19950345 131.822754,1.57804138 131.822754,2.01732414 C131.822754,2.45677241 131.665972,2.83531034 131.35208,3.15177931 C131.039495,3.46957241 130.665604,3.62830345 130.23155,3.62830345 C129.797496,3.62830345 129.423605,3.46957241 129.109876,3.15177931 C128.797129,2.83531034 128.640346,2.45677241 128.640346,2.01732414 L128.640346,2.01732414 Z M129.146661,17.735669 L131.31644,17.735669 L131.31644,6.16667586 L129.146661,6.16667586 L129.146661,17.735669 Z" id="Fill-10" fill="#2473AB"></path>
                    <path d="M141.001973,8.07028966 L137.892807,8.07028966 L137.892807,13.3180138 C137.892807,13.6435862 137.900654,13.9646897 137.916349,14.2813241 C137.932861,14.5989517 137.993023,14.8839724 138.097654,15.1363862 C138.20114,15.3888 138.3625,15.5915586 138.579446,15.7458207 C138.796391,15.9014069 139.112408,15.9780414 139.531912,15.9780414 C139.789075,15.9780414 140.053921,15.9543724 140.326615,15.9047172 C140.599145,15.8562207 140.849605,15.7673379 141.074234,15.6365793 L141.074234,17.6375172 C140.817235,17.7838345 140.483398,17.8852966 140.073866,17.942731 C139.664499,18.0001655 139.346193,18.0283034 139.1214,18.0283034 C138.285662,18.0283034 137.640222,17.9099586 137.180827,17.6745931 C136.723395,17.4392276 136.386124,17.1338483 136.168035,16.7586207 C135.95109,16.3847172 135.8221,15.9654621 135.78319,15.5025103 C135.741992,15.0384 135.721883,14.5708138 135.721883,14.0987586 L135.721883,8.07028966 L133.214833,8.07028966 L133.214833,6.16634483 L135.721883,6.16634483 L135.721883,2.92055172 L137.892807,2.92055172 L137.892807,6.16634483 L141.001973,6.16634483 L141.001973,8.07028966" id="Fill-11" fill="#2473AB"></path>
                    <path d="M142.998295,2.01732414 C142.998295,1.57804138 143.155077,1.19950345 143.467825,0.882868966 C143.781554,0.565075862 144.155445,0.406344828 144.589499,0.406344828 C145.023389,0.406344828 145.3963,0.565075862 145.709865,0.882868966 C146.023757,1.19950345 146.179722,1.57804138 146.179722,2.01732414 C146.179722,2.45677241 146.023757,2.83531034 145.709865,3.15177931 C145.3963,3.46957241 145.023389,3.62830345 144.589499,3.62830345 C144.155445,3.62830345 143.781554,3.46957241 143.467825,3.15177931 C143.155077,2.83531034 142.998295,2.45677241 142.998295,2.01732414 L142.998295,2.01732414 Z M143.504446,17.735669 L145.674388,17.735669 L145.674388,6.16667586 L143.504446,6.16667586 L143.504446,17.735669 Z" id="Fill-12" fill="#2473AB"></path>
                    <path d="M150.6759,12.7562483 C150.6759,13.2609103 150.783963,13.7205517 151.000909,14.1351724 C151.217854,14.5497931 151.502809,14.9035034 151.857736,15.196469 C152.210374,15.4904276 152.619905,15.7180138 153.08731,15.8802207 C153.552427,16.0435862 154.035363,16.1246897 154.532685,16.1246897 C155.208207,16.1246897 155.79463,15.9657931 156.293261,15.6481655 C156.790583,15.331531 157.24916,14.9126069 157.666375,14.3920552 L159.306461,15.6605793 C158.100429,17.2389517 156.413422,18.0286345 154.24348,18.0286345 C153.343329,18.0286345 152.52868,17.8732138 151.797737,17.5645241 C151.065322,17.2558345 150.446693,16.8288 149.940378,16.2835862 C149.435208,15.7383724 149.044641,15.0950069 148.771948,14.3548138 C148.498273,13.6146207 148.361436,12.8136828 148.361436,11.9506759 C148.361436,11.0888276 148.50939,10.2878897 148.807588,9.54653793 C149.104641,8.80634483 149.515316,8.16413793 150.037162,7.61892414 C150.559171,7.07371034 151.182214,6.64667586 151.905637,6.33682759 C152.628897,6.02813793 153.415589,5.87387586 154.268002,5.87387586 C155.280632,5.87387586 156.136315,6.05296552 156.835051,6.40998621 C157.535096,6.76833103 158.109257,7.23591724 158.558842,7.81373793 C159.009408,8.39172414 159.334417,9.04303448 159.535832,9.76617931 C159.736101,10.4906483 159.836318,11.227531 159.836318,11.9755034 L159.836318,12.7562483 L150.6759,12.7562483 Z M157.52169,10.9987862 C157.506159,10.5108414 157.429321,10.0636138 157.293628,9.65693793 C157.156627,9.25026207 156.951944,8.89638621 156.67925,8.59448276 C156.405575,8.29373793 156.06389,8.05837241 155.654523,7.88706207 C155.243847,7.71575172 154.76647,7.63133793 154.220101,7.63133793 C153.689264,7.63133793 153.202895,7.7328 152.761157,7.93555862 C152.319419,8.13947586 151.945528,8.40413793 151.639646,8.72971034 C151.334746,9.05428966 151.097692,9.41710345 150.929629,9.81467586 C150.760585,10.2145655 150.6759,10.6089931 150.6759,10.9987862 L157.52169,10.9987862 L157.52169,10.9987862 Z" id="Fill-13" fill="#2473AB"></path>
                    <path d="M168.46034,9.07084138 C168.203668,8.74526897 167.884871,8.47266207 167.50722,8.25302069 C167.129568,8.03337931 166.666905,7.92397241 166.120863,7.92397241 C165.607519,7.92397241 165.161203,8.03337931 164.783552,8.25302069 C164.404266,8.47266207 164.216257,8.79492414 164.216257,9.21732414 C164.216257,9.55862069 164.324158,9.83586207 164.541593,10.0475586 C164.760664,10.2584276 165.015701,10.4295724 165.31488,10.560331 C165.610788,10.6897655 165.92795,10.7877517 166.26473,10.8519724 C166.603145,10.9173517 166.892515,10.9747862 167.132838,11.0232828 C167.600407,11.1371586 168.038548,11.2756966 168.447261,11.4379034 C168.85761,11.601269 169.210739,11.8129655 169.508282,12.0733241 C169.805826,12.3335172 170.03961,12.6513103 170.208,13.0252138 C170.37639,13.3992828 170.461402,13.8542897 170.461402,14.3918897 C170.461402,15.0430345 170.324075,15.5995034 170.051054,16.0636138 C169.778033,16.526731 169.424905,16.905269 168.990033,17.1982345 C168.556797,17.4910345 168.061436,17.7028966 167.50722,17.8324966 C166.953004,17.9630897 166.393884,18.028469 165.831494,18.028469 C164.883278,18.028469 164.052772,17.8819862 163.336705,17.5891862 C162.622274,17.2962207 161.982555,16.7587862 161.420492,15.9780414 L163.059761,14.611531 C163.413544,14.9697103 163.807544,15.2863448 164.24078,15.5634207 C164.674017,15.8395034 165.205344,15.9780414 165.831494,15.9780414 C166.104515,15.9780414 166.38244,15.9499034 166.663635,15.892469 C166.94483,15.8361931 167.194963,15.7459862 167.410763,15.624331 C167.628199,15.5015172 167.804763,15.3472552 167.942091,15.1602207 C168.077784,14.9731862 168.146448,14.7580138 168.146448,14.5135448 C168.146448,14.1879724 168.046722,13.9198345 167.845635,13.7079724 C167.644548,13.497269 167.402589,13.3294345 167.123029,13.2077793 C166.840199,13.0861241 166.54429,12.9881379 166.230398,12.9148138 C165.916506,12.8416552 165.638581,12.7807448 165.398257,12.7322483 C164.930689,12.6185379 164.489278,12.4879448 164.07239,12.3412966 C163.653867,12.1949793 163.284554,12 162.962814,11.755531 C162.641238,11.5110621 162.385383,11.2023724 162.191653,10.8283034 C161.999067,10.4544 161.902284,9.99012414 161.902284,9.43713103 C161.902284,8.83547586 162.027023,8.31045517 162.276339,7.86322759 C162.52549,7.416 162.854914,7.04524138 163.264281,6.75227586 C163.673485,6.45947586 164.139419,6.23983448 164.662573,6.09318621 C165.185726,5.94686897 165.712149,5.87354483 166.241842,5.87354483 C167.013494,5.87354483 167.752448,6.02002759 168.46034,6.3129931 C169.166598,6.60595862 169.728988,7.09373793 170.14751,7.77748966 L168.46034,9.07084138" id="Fill-14" fill="#2473AB"></path>
                    <polygon id="Fill-15" fill="#179A47" points="17.4517477 42.1415172 19.6216905 42.1415172 19.6216905 23.6899862 17.4517477 23.6899862"></polygon>
                    <path d="M22.5524946,26.4241655 C22.5524946,25.9848828 22.7082963,25.6063448 23.0220249,25.2897103 C23.335917,24.9720828 23.7098083,24.8131862 24.1427178,24.8131862 C24.5777527,24.8131862 24.951644,24.9720828 25.2643917,25.2897103 C25.5781203,25.6063448 25.7350664,25.9848828 25.7350664,26.4241655 C25.7350664,26.8636138 25.5781203,27.2421517 25.2643917,27.5586207 C24.951644,27.8764138 24.5777527,28.0353103 24.1427178,28.0353103 C23.7098083,28.0353103 23.335917,27.8764138 23.0220249,27.5586207 C22.7082963,27.2421517 22.5524946,26.8636138 22.5524946,26.4241655 L22.5524946,26.4241655 Z M23.0588091,42.1425103 L25.2287519,42.1425103 L25.2287519,30.5735172 L23.0588091,30.5735172 L23.0588091,42.1425103 Z" id="Fill-16" fill="#179A47"></path>
                    <path d="M28.6004763,30.5731862 L30.6257344,30.5731862 L30.6257344,32.3791448 L30.6736357,32.3791448 C30.7215369,32.2169379 30.8461129,32.0130207 31.047527,31.7697103 C31.2477967,31.5252414 31.5059402,31.2931862 31.818688,31.0735448 C32.1324166,30.8537379 32.5018938,30.6667034 32.9281004,30.5124414 C33.3531627,30.3581793 33.8238373,30.2803862 34.3379992,30.2803862 C35.189268,30.2803862 35.904844,30.4594759 36.4834191,30.8176552 C37.0619942,31.176 37.5361021,31.7122759 37.9054158,32.4276414 C38.2760373,31.7122759 38.797883,31.176 39.473405,30.8176552 C40.1477826,30.4594759 40.8309884,30.2803862 41.5220415,30.2803862 C42.405517,30.2803862 43.1289402,30.426869 43.6918207,30.7198345 C44.2538838,31.0126345 44.6956216,31.3991172 45.0171975,31.8789517 C45.3387734,32.3589517 45.5602963,32.9041655 45.6804581,33.5147586 C45.8017643,34.1243586 45.8617635,34.7551448 45.8617635,35.4064552 L45.8617635,42.1423448 L43.6918207,42.1423448 L43.6918207,35.6992552 C43.6918207,35.2599724 43.6630473,34.8364138 43.6072988,34.4295724 C43.5505693,34.0228966 43.4348216,33.6647172 43.2579303,33.3560276 C43.081039,33.0473379 42.8317237,32.7982345 42.5101477,32.6112 C42.1885718,32.4241655 41.7623651,32.3306483 41.2326722,32.3306483 C40.1878365,32.3306483 39.4400539,32.6563862 38.9904689,33.307531 C38.5408838,33.9575172 38.3149469,34.7958621 38.3149469,35.8209103 L38.3149469,42.1423448 L36.146312,42.1423448 L36.146312,36.0892138 C36.146312,35.5358897 36.118356,35.0312276 36.0616266,34.5760552 C36.0048971,34.1208828 35.8924191,33.7254621 35.7245195,33.3921103 C35.555312,33.0585931 35.3149884,32.7982345 35.0010963,32.6112 C34.6873676,32.4241655 34.2655751,32.3306483 33.7358822,32.3306483 C33.3498929,32.3306483 32.9760017,32.4084414 32.6143718,32.562869 C32.2525784,32.717131 31.9354166,32.9491862 31.6617419,33.2580414 C31.3892116,33.5677241 31.1721029,33.9619862 31.0107427,34.4419862 C30.850527,34.9219862 30.7704191,35.4875586 30.7704191,36.1375448 L30.7704191,42.1423448 L28.6004763,42.1423448 L28.6004763,30.5731862" id="Fill-17" fill="#179A47"></path>
                    <path d="M49.0314199,31.9890207 C49.6423651,31.4201379 50.3489494,30.9921103 51.152317,30.7080828 C51.9558481,30.4230621 52.7603602,30.2800552 53.5637278,30.2800552 C54.3994656,30.2800552 55.1183112,30.3869793 55.7214091,30.5976828 C56.3233627,30.8095448 56.8185602,31.0945655 57.2035685,31.4515862 C57.5897212,31.809931 57.8745129,32.2210759 58.0592515,32.6841931 C58.24399,33.1483034 58.3363593,33.6327724 58.3363593,34.1364414 L58.3363593,40.0430897 C58.3363593,40.4497655 58.3442066,40.8238345 58.3608822,41.1662897 C58.3764133,41.5077517 58.4009361,41.8333241 58.4331427,42.1420138 L56.5048315,42.1420138 C56.4557859,41.5560828 56.4324075,40.9703172 56.4324075,40.3845517 L56.3835253,40.3845517 C55.9017336,41.1336828 55.3308423,41.6620138 54.6721593,41.9718621 C54.0133129,42.2805517 53.2499992,42.4348138 52.3820548,42.4348138 C51.8521983,42.4348138 51.3460473,42.3616552 50.8631112,42.2151724 C50.381156,42.0686897 49.959527,41.8490483 49.5977336,41.5560828 C49.2362672,41.2632828 48.9501676,40.9016276 48.7422141,40.4701241 C48.5329527,40.0397793 48.428322,39.5395862 48.428322,38.9693793 C48.428322,38.2214069 48.5929519,37.5950897 48.9223751,37.0902621 C49.2517983,36.5856 49.7025278,36.1744552 50.2732556,35.8578207 C50.8430025,35.5401931 51.5106772,35.3126069 52.2739909,35.1739034 C53.037468,35.0353655 53.8530971,34.9666759 54.7210415,34.9666759 L56.3111012,34.9666759 L56.3111012,34.4788966 C56.3111012,34.185931 56.2555162,33.8929655 56.1432017,33.6 C56.0307237,33.3072 55.8615162,33.0423724 55.6367237,32.8070069 C55.4109502,32.5714759 55.1305726,32.3832828 54.7933021,32.2447448 C54.456195,32.1073655 54.0533668,32.0375172 53.5882506,32.0375172 C53.1698913,32.0375172 52.8036838,32.078069 52.4910996,32.160331 C52.1772075,32.2414345 51.8924158,32.3428966 51.6352531,32.4645517 C51.3771095,32.5873655 51.1446332,32.7292138 50.9353718,32.8925793 C50.7272548,33.0547862 50.5258407,33.2092138 50.3332548,33.355531 L49.0314199,31.9890207 Z M55.1550954,36.5776552 C54.6397892,36.5776552 54.1135295,36.6059586 53.5759892,36.6633931 C53.037468,36.719669 52.5466846,36.830069 52.1049469,36.9922759 C51.6630456,37.1556414 51.3014158,37.3832276 51.0198938,37.6761931 C50.7383718,37.9689931 50.5982647,38.3430621 50.5982647,38.7982345 C50.5982647,39.4662621 50.8196241,39.9451034 51.2613618,40.238069 C51.7030996,40.530869 52.3017834,40.6773517 53.0574133,40.6773517 C53.651683,40.6773517 54.1579975,40.5760552 54.5763568,40.373131 C54.9935718,40.1692138 55.3308423,39.9057103 55.5878415,39.5801379 C55.8459851,39.2545655 56.0307237,38.8929103 56.1432017,38.4928552 C56.2555162,38.0952828 56.3111012,37.6996966 56.3111012,37.3099034 L56.3111012,36.5776552 L55.1550954,36.5776552 L55.1550954,36.5776552 Z" id="Fill-18" fill="#179A47"></path>
                    <path d="M67.7864739,32.477131 L64.6774705,32.477131 L64.6774705,37.7248552 C64.6774705,38.0504276 64.6851544,38.371531 64.700849,38.688 C64.7163801,39.0057931 64.7775237,39.2908138 64.8821544,39.5432276 C64.9856407,39.7954759 65.1470008,39.9982345 65.3639461,40.1526621 C65.5810548,40.3080828 65.8982166,40.3847172 66.3154315,40.3847172 C66.5724307,40.3847172 66.8384216,40.3598897 67.1120963,40.3113931 C67.38479,40.2630621 67.6341054,40.1740138 67.8588979,40.0434207 L67.8588979,42.0441931 C67.6017353,42.1906759 67.2678979,42.2921379 66.8585303,42.3495724 C66.4489992,42.4068414 66.1306929,42.4351448 65.9059004,42.4351448 C65.0703261,42.4351448 64.4237411,42.3168 63.9651643,42.0814345 C63.5078954,41.8459034 63.1706249,41.5406897 62.9525353,41.1654621 C62.7367344,40.7913931 62.6077444,40.3723034 62.567527,39.9093517 C62.527473,39.4450759 62.5075278,38.9776552 62.5075278,38.5056 L62.5075278,32.477131 L59.9993336,32.477131 L59.9993336,30.5731862 L62.5075278,30.5731862 L62.5075278,27.3273931 L64.6774705,27.3273931 L64.6774705,30.5731862 L67.7864739,30.5731862 L67.7864739,32.477131" id="Fill-19" fill="#179A47"></path>
                    <path d="M71.7570456,37.1630897 C71.7570456,37.6677517 71.8651095,38.1273931 72.0831992,38.5420138 C72.299,38.9566345 72.5849361,39.3103448 72.9388822,39.6033103 C73.2916838,39.897269 73.7010515,40.1248552 74.1684564,40.2870621 C74.6335726,40.4505931 75.1153643,40.531531 75.613995,40.531531 C76.2893535,40.531531 76.8757759,40.3728 77.3744066,40.0550069 C77.8717295,39.7385379 78.3301427,39.3194483 78.7486656,38.7988966 L80.387771,40.0674207 C79.182556,41.6457931 77.4945685,42.4344828 75.3257701,42.4344828 C74.4243112,42.4344828 73.6086822,42.2800552 72.8775751,41.9713655 C72.1466315,41.6626759 71.527839,41.2358069 71.0215245,40.6904276 C70.51521,40.1452138 70.1257876,39.5018483 69.8530938,38.7616552 C69.5794191,38.0214621 69.4425817,37.2205241 69.4425817,36.3575172 C69.4425817,35.495669 69.5905361,34.694731 69.8887336,33.9533793 C70.1859502,33.2131862 70.5953178,32.5711448 71.1183079,32.0257655 C71.640317,31.4805517 72.2633602,31.0535172 72.9866199,30.7448276 C73.7100432,30.4349793 74.4967353,30.2807172 75.3491485,30.2807172 C76.3616141,30.2807172 77.2174606,30.4598069 77.9161975,30.8169931 C78.6160788,31.1751724 79.1892589,31.6439172 79.6399884,32.2205793 C80.0895734,32.798731 80.4155635,33.4498759 80.6158332,34.1730207 C80.8172473,34.8974897 80.9174639,35.6342069 80.9174639,36.3823448 L80.9174639,37.1630897 L71.7570456,37.1630897 Z M78.6039809,35.4056276 C78.5873054,34.9176828 78.5116116,34.4704552 78.3747743,34.0637793 C78.2379369,33.6571034 78.0330896,33.3033931 77.7605593,33.0014897 C77.4855768,32.7005793 77.1450365,32.4650483 76.7356689,32.2939034 C76.3249934,32.1227586 75.8464714,32.0381793 75.3012473,32.0381793 C74.77041,32.0381793 74.2842041,32.1396414 73.8424664,32.3424 C73.4007286,32.5463172 73.0268373,32.8109793 72.7217734,33.1367172 C72.4158921,33.4621241 72.1788382,33.8237793 72.0107751,34.2226759 C71.8417311,34.6214069 71.7570456,35.0158345 71.7570456,35.4056276 L78.6039809,35.4056276 L78.6039809,35.4056276 Z" id="Fill-20" fill="#179A47"></path>
                    <path d="M103.144459,28.5962483 C102.662667,27.9619862 102.051722,27.4730483 101.312768,27.1317517 C100.572832,26.7902897 99.8095187,26.6191448 99.0215187,26.6191448 C98.0579353,26.6191448 97.1855768,26.802869 96.4065685,27.1688276 C95.6265793,27.5351172 94.960049,28.0353103 94.4058332,28.6695724 C93.8516174,29.3038345 93.4209967,30.0484966 93.1160963,30.9025655 C92.8100515,31.7576276 92.657683,32.6722759 92.657683,33.6491586 C92.657683,34.5604966 92.8023676,35.4223448 93.0915734,36.2358621 C93.3809427,37.0492138 93.7983212,37.7657379 94.3456705,38.3831172 C94.8922025,39.0028138 95.5587328,39.4905931 96.3465693,39.8476138 C97.1332614,40.2059586 98.0257286,40.3850483 99.0215187,40.3850483 C100.003085,40.3850483 100.862038,40.181131 101.602137,39.7744552 C102.340928,39.3677793 102.967404,38.7988966 103.481566,38.0664828 L105.434563,39.5546483 C105.306554,39.7339034 105.080617,39.9907862 104.760186,40.3241379 C104.43861,40.6576552 104.012403,40.9911724 103.481566,41.3246897 C102.951873,41.6582069 102.313135,41.9510069 101.565353,42.2034207 C100.818878,42.455669 99.9542033,42.5819586 98.9737809,42.5819586 C97.6240448,42.5819586 96.4065685,42.3204414 95.3216788,41.8012138 C94.2366257,41.2795034 93.3130963,40.5967448 92.5497826,39.7507862 C91.7853245,38.9046621 91.2033162,37.9481379 90.8016324,36.8823724 C90.3999485,35.8167724 90.1985344,34.7385931 90.1985344,33.6491586 C90.1985344,32.3140966 90.4166241,31.0826483 90.8493701,29.9505103 C91.2834241,28.8205241 91.8897917,27.8438069 92.6699444,27.0225103 C93.4499336,26.2012138 94.3857245,25.5623172 95.4786249,25.1061517 C96.5713618,24.6509793 97.7764133,24.4222345 99.0939427,24.4222345 C100.21905,24.4222345 101.325029,24.6430345 102.409919,25.0813241 C103.493827,25.5206069 104.38188,26.1965793 105.07277,27.1069241 L103.144459,28.5962483" id="Fill-21" fill="#179A47"></path>
                    <path d="M107.570338,23.6904828 L109.740444,23.6904828 L109.740444,32.3551448 L109.788182,32.3551448 C110.06202,31.7367724 110.535964,31.2365793 111.210342,30.8534069 C111.885864,30.4715586 112.664872,30.2800552 113.549492,30.2800552 C114.095861,30.2800552 114.62212,30.3656276 115.128435,30.5369379 C115.634749,30.7080828 116.076487,30.9729103 116.453648,31.3300966 C116.832117,31.6882759 117.133748,32.1479172 117.35854,32.7090207 C117.583169,33.2699586 117.695484,33.9336828 117.695484,34.6985379 L117.695484,42.1420138 L115.525705,42.1420138 L115.525705,35.3079724 C115.525705,34.7718621 115.45328,34.3120552 115.308596,33.9290483 C115.164075,33.5472 114.971489,33.2385103 114.730021,33.0018207 C114.489697,32.7664552 114.211608,32.5951448 113.898697,32.4892138 C113.584968,32.3832828 113.259959,32.3304828 112.923016,32.3304828 C112.472286,32.3304828 112.054908,32.4036414 111.668755,32.5501241 C111.282602,32.6966069 110.945495,32.9286621 110.656126,33.2462897 C110.36692,33.5629241 110.142128,33.9662897 109.981749,34.454069 C109.820388,34.9418483 109.740444,35.5198345 109.740444,36.1867034 L109.740444,42.1420138 L107.570338,42.1420138 L107.570338,23.6904828" id="Fill-22" fill="#179A47"></path>
                    <path d="M120.865631,31.9890207 C121.476576,31.4201379 122.18316,30.9921103 122.986528,30.7080828 C123.79104,30.4230621 124.594407,30.2800552 125.397939,30.2800552 C126.233676,30.2800552 126.952522,30.3869793 127.55562,30.5976828 C128.157573,30.8095448 128.652934,31.0945655 129.037779,31.4515862 C129.423932,31.809931 129.708724,32.2210759 129.893462,32.6841931 C130.078201,33.1483034 130.170734,33.6327724 130.170734,34.1364414 L130.170734,40.0430897 C130.170734,40.4497655 130.178417,40.8238345 130.195093,41.1662897 C130.210624,41.5077517 130.235147,41.8333241 130.267354,42.1420138 L128.339042,42.1420138 C128.291141,41.5560828 128.266618,40.9703172 128.266618,40.3845517 L128.217573,40.3845517 C127.735781,41.1336828 127.165053,41.6620138 126.507351,41.9718621 C125.84736,42.2805517 125.085191,42.4348138 124.216266,42.4348138 C123.686573,42.4348138 123.180258,42.3616552 122.697322,42.2151724 C122.216511,42.0686897 121.793574,41.8490483 121.432108,41.5560828 C121.070478,41.2632828 120.784378,40.9016276 120.576261,40.4701241 C120.367163,40.0397793 120.263677,39.5395862 120.263677,38.9693793 C120.263677,38.2214069 120.427163,37.5950897 120.75773,37.0902621 C121.085846,36.5856 121.536575,36.1744552 122.107466,35.8578207 C122.677213,35.5401931 123.344888,35.3126069 124.108202,35.1739034 C124.871679,35.0353655 125.687308,34.9666759 126.555089,34.9666759 L128.146456,34.9666759 L128.146456,34.4788966 C128.146456,34.185931 128.089727,33.8929655 127.977412,33.6 C127.864934,33.3072 127.695727,33.0423724 127.471098,32.8070069 C127.245161,32.5714759 126.96462,32.3832828 126.627513,32.2447448 C126.290406,32.1073655 125.887414,32.0375172 125.422461,32.0375172 C125.003939,32.0375172 124.639039,32.078069 124.32531,32.160331 C124.011418,32.2414345 123.726627,32.3428966 123.469464,32.4645517 C123.212465,32.5873655 122.97868,32.7292138 122.769583,32.8925793 C122.561466,33.0547862 122.360051,33.2092138 122.167629,33.355531 L120.865631,31.9890207 Z M126.989306,36.5776552 C126.474981,36.5776552 125.94774,36.6059586 125.409056,36.6633931 C124.871679,36.719669 124.380895,36.830069 123.938994,36.9922759 C123.497256,37.1556414 123.135627,37.3832276 122.854105,37.6761931 C122.572583,37.9689931 122.432476,38.3430621 122.432476,38.7982345 C122.432476,39.4662621 122.653835,39.9451034 123.095573,40.238069 C123.53731,40.530869 124.136158,40.6773517 124.891624,40.6773517 C125.48573,40.6773517 125.992208,40.5760552 126.410568,40.373131 C126.827783,40.1692138 127.165053,39.9057103 127.423197,39.5801379 C127.680196,39.2545655 127.864934,38.8929103 127.977412,38.4928552 C128.089727,38.0952828 128.146456,37.6996966 128.146456,37.3099034 L128.146456,36.5776552 L126.989306,36.5776552 L126.989306,36.5776552 Z" id="Fill-23" fill="#179A47"></path>
                    <polygon id="Fill-24" fill="#179A47" points="133.463658 42.1415172 135.633601 42.1415172 135.633601 23.6899862 133.463658 23.6899862"></polygon>
                    <polygon id="Fill-25" fill="#179A47" points="139.06418 42.1415172 141.234123 42.1415172 141.234123 23.6899862 139.06418 23.6899862"></polygon>
                    <path d="M146.285988,37.1630897 C146.285988,37.6677517 146.395032,38.1273931 146.611978,38.5420138 C146.828923,38.9566345 147.113715,39.3103448 147.467661,39.6033103 C147.820462,39.897269 148.230974,40.1248552 148.697398,40.2870621 C149.162515,40.4505931 149.645451,40.531531 150.144081,40.531531 C150.818295,40.531531 151.404554,40.3728 151.903185,40.0550069 C152.400671,39.7385379 152.859085,39.3194483 153.277607,38.7988966 L154.916549,40.0674207 C153.711498,41.6457931 152.02351,42.4344828 149.854549,42.4344828 C148.953253,42.4344828 148.138768,42.2800552 147.407661,41.9713655 C146.67541,41.6626759 146.056781,41.2358069 145.551611,40.6904276 C145.045296,40.1452138 144.654566,39.5018483 144.381872,38.7616552 C144.108361,38.0214621 143.972505,37.2205241 143.972505,36.3575172 C143.972505,35.495669 144.120459,34.694731 144.417676,33.9533793 C144.714729,33.2131862 145.125241,32.5711448 145.64725,32.0257655 C146.169095,31.4805517 146.792302,31.0535172 147.515562,30.7448276 C148.238822,30.4349793 149.025677,30.2807172 149.87809,30.2807172 C150.890556,30.2807172 151.746239,30.4598069 152.445139,30.8169931 C153.145021,31.1751724 153.719345,31.6439172 154.16893,32.2205793 C154.61966,32.798731 154.944505,33.4498759 155.145756,34.1730207 C155.346189,34.8974897 155.447387,35.6342069 155.447387,36.3823448 L155.447387,37.1630897 L146.285988,37.1630897 Z M153.132923,35.4056276 C153.116084,34.9176828 153.04039,34.4704552 152.903553,34.0637793 C152.766879,33.6571034 152.562032,33.3033931 152.289338,33.0014897 C152.015663,32.7005793 151.673978,32.4650483 151.264447,32.2939034 C150.854916,32.1227586 150.376394,32.0381793 149.830189,32.0381793 C149.299352,32.0381793 148.813146,32.1396414 148.371408,32.3424 C147.929507,32.5463172 147.555779,32.8109793 147.250715,33.1367172 C146.944671,33.4621241 146.70778,33.8237793 146.539717,34.2226759 C146.370673,34.6214069 146.285988,35.0158345 146.285988,35.4056276 L153.132923,35.4056276 L153.132923,35.4056276 Z" id="Fill-26" fill="#179A47"></path>
                    <path d="M158.091274,30.5731862 L160.261053,30.5731862 L160.261053,32.3554759 L160.308954,32.3554759 C160.582629,31.7371034 161.0569,31.2369103 161.731115,30.8537379 C162.406473,30.4718897 163.185481,30.2803862 164.070755,30.2803862 C164.616797,30.2803862 165.14322,30.3659586 165.64839,30.537269 C166.155195,30.7072552 166.596606,30.9720828 166.974257,31.3304276 C167.353544,31.6874483 167.652722,32.1470897 167.879967,32.7093517 C168.103942,33.2702897 168.216747,33.9340138 168.216747,34.6977103 L168.216747,42.1423448 L166.04566,42.1423448 L166.04566,35.3083034 C166.04566,34.7710345 165.973726,34.3113931 165.829859,33.9293793 C165.684357,33.547531 165.491444,33.2376828 165.25112,33.0023172 C165.010797,32.7656276 164.732871,32.5954759 164.418979,32.4895448 C164.105087,32.3837793 163.781386,32.3306483 163.443625,32.3306483 C162.992895,32.3306483 162.57568,32.4039724 162.189528,32.5504552 C161.803375,32.6969379 161.466105,32.9289931 161.176899,33.2456276 C160.887529,33.5632552 160.662737,33.9654621 160.502521,34.4544 C160.341324,34.9421793 160.261053,35.5201655 160.261053,36.1870345 L160.261053,42.1423448 L158.091274,42.1423448 L158.091274,30.5731862" id="Fill-27" fill="#179A47"></path>
                    <path d="M182.881394,42.0446897 C182.881394,42.9235862 182.732622,43.7245241 182.435079,44.4488276 C182.137535,45.1721379 181.715743,45.7986207 181.169701,46.3281103 C180.62366,46.8564414 179.964813,47.2677517 179.191527,47.5605517 C178.42151,47.8535172 177.569751,48 176.637884,48 C175.544166,48 174.543635,47.8455724 173.63629,47.5357241 C172.728946,47.2272 171.864108,46.6897655 171.045046,45.9247448 L172.51478,44.0704552 C173.07717,44.6889931 173.688606,45.1564138 174.347452,45.4742069 C175.006299,45.7906759 175.753427,45.9495724 176.588838,45.9495724 C177.393187,45.9495724 178.060207,45.8312276 178.5899,45.5958621 C179.121228,45.3591724 179.543021,45.0549517 179.855278,44.6810483 C180.16917,44.3058207 180.389876,43.8789517 180.519029,43.3989517 C180.646548,42.9189517 180.711942,42.4344828 180.711942,41.9467034 L180.711942,40.238731 L180.638373,40.238731 C180.219851,40.9383724 179.655826,41.4554483 178.939759,41.7879724 C178.223693,42.1224828 177.473295,42.2891586 176.685295,42.2891586 C175.849884,42.2891586 175.073328,42.1382069 174.358896,41.8374621 C173.644465,41.5367172 173.028124,41.1209379 172.51478,40.5926069 C171.999801,40.0642759 171.599261,39.4366345 171.309892,38.7133241 C171.020523,37.9890207 170.875021,37.2038069 170.875021,36.3576828 C170.875021,35.5115586 171.012349,34.7184 171.285369,33.9783724 C171.55839,33.2381793 171.94912,32.5915034 172.45429,32.0383448 C172.961095,31.4851862 173.570896,31.0536828 174.286963,30.7438345 C175.001394,30.4351448 175.800838,30.2808828 176.685295,30.2808828 C177.456946,30.2808828 178.208979,30.450869 178.939759,30.7933241 C179.670539,31.1347862 180.244373,31.6146207 180.662896,32.2331586 L180.711942,32.2331586 L180.711942,30.5736828 L182.881394,30.5736828 L182.881394,42.0446897 Z M176.951776,32.3311448 C176.373037,32.3311448 175.849884,32.4326069 175.38395,32.6353655 C174.916382,32.8392828 174.524017,33.1153655 174.20195,33.4656 C173.881519,33.8161655 173.631386,34.2385655 173.454822,34.7342897 C173.278257,35.2310069 173.189975,35.7719172 173.189975,36.3576828 C173.189975,37.5293793 173.526755,38.4688552 174.20195,39.1764414 C174.877145,39.8850207 175.794299,40.238731 176.951776,40.238731 C178.107618,40.238731 179.024772,39.8850207 179.699967,39.1764414 C180.373527,38.4688552 180.711942,37.5293793 180.711942,36.3576828 C180.711942,35.7719172 180.62366,35.2310069 180.447095,34.7342897 C180.268896,34.2385655 180.020398,33.8161655 179.699967,33.4656 C179.376266,33.1153655 178.9839,32.8392828 178.517967,32.6353655 C178.052033,32.4326069 177.530515,32.3311448 176.951776,32.3311448 L176.951776,32.3311448 Z" id="Fill-28" fill="#179A47"></path>
                    <path d="M187.839909,37.1630897 C187.839909,37.6677517 187.947809,38.1273931 188.165245,38.5420138 C188.381046,38.9566345 188.667145,39.3103448 189.021909,39.6033103 C189.373402,39.897269 189.783751,40.1248552 190.249685,40.2870621 C190.715618,40.4505931 191.199535,40.531531 191.696531,40.531531 C192.371726,40.531531 192.958639,40.3728 193.45727,40.0550069 C193.954266,39.7385379 194.412025,39.3194483 194.830548,38.7988966 L196.470307,40.0674207 C195.263784,41.6457931 193.576614,42.4344828 191.407162,42.4344828 C190.506357,42.4344828 189.692199,42.2800552 188.961419,41.9713655 C188.229004,41.6626759 187.611029,41.2358069 187.104224,40.6904276 C186.599054,40.1452138 186.208324,39.5018483 185.935303,38.7616552 C185.662282,38.0214621 185.524954,37.2205241 185.524954,36.3575172 C185.524954,35.495669 185.673726,34.694731 185.97127,33.9533793 C186.268813,33.2131862 186.679162,32.5711448 187.20068,32.0257655 C187.722199,31.4805517 188.346714,31.0535172 189.06932,30.7448276 C189.791925,30.4349793 190.579925,30.2807172 191.431685,30.2807172 C192.44366,30.2807172 193.300324,30.4598069 193.998407,30.8169931 C194.698124,31.1751724 195.273593,31.6439172 195.723178,32.2205793 C196.172763,32.798731 196.4981,33.4498759 196.699187,34.1730207 C196.900274,34.8974897 197,35.6342069 197,36.3823448 L197,37.1630897 L187.839909,37.1630897 Z M194.685046,35.4056276 C194.670332,34.9176828 194.593494,34.4704552 194.457801,34.0637793 C194.320473,33.6571034 194.116116,33.3033931 193.841461,33.0014897 C193.570075,32.7005793 193.22839,32.4650483 192.818041,32.2939034 C192.407693,32.1227586 191.930315,32.0381793 191.384274,32.0381793 C190.852946,32.0381793 190.367394,32.1396414 189.924349,32.3424 C189.481303,32.5463172 189.108556,32.8109793 188.802838,33.1367172 C188.498755,33.4621241 188.261701,33.8237793 188.093311,34.2226759 C187.924921,34.6214069 187.839909,35.0158345 187.839909,35.4056276 L194.685046,35.4056276 L194.685046,35.4056276 Z" id="Fill-29" fill="#179A47"></path>
                    <path d="M12.9459245,28.5962483 C12.4629884,27.9619862 11.8531876,27.4730483 11.1143967,27.1317517 C10.3744614,26.7902897 9.61098423,26.6191448 8.82314772,26.6191448 C7.85956432,26.6191448 6.98704232,26.802869 6.20819751,27.1688276 C5.42804481,27.5351172 4.76151452,28.0353103 4.20631784,28.6695724 C3.65324647,29.3038345 3.22262573,30.0484966 2.91772531,30.9025655 C2.6116805,31.7576276 2.45914855,32.6722759 2.45914855,33.6491586 C2.45914855,34.5604966 2.6038332,35.4223448 2.89320249,36.2358621 C3.18257178,37.0492138 3.59978672,37.7657379 4.14729959,38.3831172 C4.69252365,39.0028138 5.36019834,39.4905931 6.14803485,39.8476138 C6.93472697,40.2059586 7.82719419,40.3850483 8.82314772,40.3850483 C9.80455104,40.3850483 10.6636672,40.181131 11.4036025,39.7744552 C12.1414124,39.3677793 12.7690332,38.7988966 13.283195,38.0664828 L15.236029,39.5546483 C15.1080199,39.7339034 14.8822465,39.9907862 14.5605071,40.3241379 C14.2390946,40.6576552 13.8140324,40.9911724 13.283195,41.3246897 C12.7535021,41.6582069 12.1136199,41.9510069 11.3669817,42.2034207 C10.6191992,42.455669 9.75566888,42.5819586 8.77524647,42.5819586 C7.42551037,42.5819586 6.20819751,42.3204414 5.1231444,41.8012138 C4.03825477,41.2795034 3.11358091,40.5967448 2.35124813,39.7507862 C1.58679004,38.9046621 1.00478174,37.9481379 0.603097925,36.8823724 C0.201414108,35.8167724 0,34.7385931 0,33.6491586 C0,32.3140966 0.216945228,31.0826483 0.65099917,29.9505103 C1.08488963,28.8205241 1.69142075,27.8438069 2.47140996,27.0225103 C3.25041826,26.2012138 4.18735353,25.5623172 5.28009046,25.1061517 C6.37282739,24.6509793 7.57804232,24.4222345 8.89557178,24.4222345 C10.0205154,24.4222345 11.1255137,24.6430345 12.2115477,25.0813241 C13.2954564,25.5206069 14.1833461,26.1965793 14.8743992,27.1069241 L12.9459245,28.5962483" id="Fill-30" fill="#179A47"></path>
                </g>
            </g>
        </g>
    </g>
</svg>