<?xml version="1.0" encoding="UTF-8" standalone="no"?><!DOCTYPE svg PUBLIC "-//W3C//DTD SVG 1.1//EN" "http://www.w3.org/Graphics/SVG/1.1/DTD/svg11.dtd"><svg width="100%" height="100%" viewBox="0 0 554 142" version="1.1" xmlns="http://www.w3.org/2000/svg" xmlns:xlink="http://www.w3.org/1999/xlink" xml:space="preserve" style="fill-rule:evenodd;clip-rule:evenodd;stroke-linejoin:round;stroke-miterlimit:1.41421;"><g><path d="M80.007,45.487c0,24.848 -20.17,44.992 -45.051,44.992c-0.051,0 -0.101,-0.002 -0.152,-0.002l0,0.002l-34.779,0l0,-89.983l34.779,0l0,0.001c0.051,0 0.101,-0.001 0.152,-0.001c24.881,0 45.051,20.143 45.051,44.991" style="fill:#fee900;fill-rule:nonzero;"/><path d="M81.009,45.487c0,24.848 20.17,44.992 45.051,44.992c0.051,0 0.101,-0.002 0.152,-0.002l0,0.002l34.779,0l0,-89.983l-34.779,0l0,0.001c-0.051,0 -0.101,-0.001 -0.152,-0.001c-24.881,0 -45.051,20.143 -45.051,44.991" style="fill:#fff;fill-rule:nonzero;"/><path d="M221.393,49.673c8.5,0 12.715,-6.663 12.715,-14.346c0,-7.684 -4.215,-14.279 -12.715,-14.279l-8.975,0l0,28.625l8.975,0Zm-20.193,-39.436l20.057,0c15.435,0 24.478,9.723 24.478,25.158c0,15.434 -9.247,25.089 -24.818,25.089l-19.717,0l0,-50.247Z" style="fill:#fff;fill-rule:nonzero;"/><path d="M259.133,37.843l17.543,0c-0.952,-4.216 -4.08,-6.936 -8.567,-6.936c-4.352,0 -7.751,2.584 -8.976,6.936m27.47,7.615l-27.402,0c1.157,4.08 4.352,7.003 10.131,7.003c4.012,0 8.635,-1.563 11.627,-3.603l4.216,7.275c-3.604,2.72 -9.384,5.168 -16.318,5.168c-13.939,0 -20.399,-9.384 -20.399,-19.515c0,-11.083 7.82,-19.513 19.651,-19.513c10.674,0 18.834,6.867 18.834,18.697c0,1.497 -0.136,2.992 -0.34,4.488" style="fill:#fff;fill-rule:nonzero;"/><rect x="291.842" y="8.742" width="10.675" height="51.743" style="fill:#fff;fill-rule:nonzero;"/><path d="M308.841,23.224l10.675,0l0,37.26l-10.675,0l0,-37.26Zm-0.951,-10.131c0,-3.604 2.787,-6.323 6.39,-6.323c3.536,0 6.324,2.719 6.324,6.323c0,3.672 -2.788,6.324 -6.324,6.324c-3.603,0 -6.39,-2.652 -6.39,-6.324" style="fill:#fff;fill-rule:nonzero;"/><path d="M363.033,23.224l-16.114,37.192l-8.364,0l-16.045,-37.192l11.762,0l8.635,22.846l8.499,-22.846l11.627,0Z" style="fill:#fff;fill-rule:nonzero;"/><path d="M373.711,37.843l17.543,0c-0.952,-4.216 -4.08,-6.936 -8.567,-6.936c-4.352,0 -7.751,2.584 -8.976,6.936m27.47,7.615l-27.402,0c1.157,4.08 4.352,7.003 10.131,7.003c4.012,0 8.635,-1.563 11.627,-3.603l4.216,7.275c-3.604,2.72 -9.384,5.168 -16.318,5.168c-13.939,0 -20.399,-9.384 -20.399,-19.515c0,-11.083 7.82,-19.513 19.651,-19.513c10.674,0 18.834,6.867 18.834,18.697c0,1.497 -0.136,2.992 -0.34,4.488" style="fill:#fff;fill-rule:nonzero;"/><path d="M406.42,23.224l10.198,0l0,4.828c2.448,-4.012 5.984,-5.848 10.131,-5.848c1.36,0 3.06,0.34 4.624,0.884l-0.884,10.199c-1.564,-0.544 -3.196,-0.816 -4.691,-0.816c-4.896,0 -8.703,2.924 -8.703,11.015l0,16.998l-10.675,0l0,-37.26Z" style="fill:#fff;fill-rule:nonzero;"/><path d="M473.326,23.224l-14.754,38.28c-3.603,9.451 -8.499,14.823 -16.795,14.823c-2.855,0 -5.575,-0.68 -7.547,-1.972l1.972,-8.839c1.428,0.748 3.06,1.291 4.827,1.291c3.061,0 5.304,-1.767 7.208,-5.711l0.476,-1.088l-16.25,-36.784l12.306,0l8.975,23.05l8.023,-23.05l11.559,0Z" style="fill:#fff;fill-rule:nonzero;"/><path d="M214.458,120.494l10.811,0l-5.372,-15.91l-5.439,15.91Zm13.802,9.859l-16.862,0l-3.467,10.131l-11.696,0l18.834,-50.247l9.791,0l18.427,50.247l-11.695,0l-3.332,-10.131Z" style="fill:#fff;fill-rule:nonzero;"/><path d="M243.768,134.637l5.235,-6.936c2.787,2.857 6.663,4.897 10.675,4.897c2.584,0 4.556,-1.156 4.556,-2.992c0,-1.156 -0.681,-1.972 -2.313,-2.72c-1.971,-0.884 -7.003,-2.448 -9.247,-3.536c-4.283,-2.039 -6.663,-5.303 -6.663,-9.859c0,-6.731 5.712,-11.491 14.551,-11.491c4.895,0 9.518,1.429 13.463,5.168l-4.964,6.936c-3.06,-2.517 -6.323,-3.468 -8.703,-3.468c-2.38,0 -3.876,1.155 -3.876,2.651c0,1.224 0.816,2.312 3.332,3.128c2.311,0.748 5.915,1.904 8.839,3.4c4.351,2.311 6.323,5.168 6.323,9.519c0,6.867 -5.847,12.17 -15.298,12.17c-6.256,0 -11.967,-2.379 -15.91,-6.867" style="fill:#fff;fill-rule:nonzero;"/><path d="M276.135,134.637l5.235,-6.936c2.787,2.857 6.663,4.897 10.675,4.897c2.584,0 4.556,-1.156 4.556,-2.992c0,-1.156 -0.681,-1.972 -2.313,-2.72c-1.971,-0.884 -7.003,-2.448 -9.247,-3.536c-4.283,-2.039 -6.663,-5.303 -6.663,-9.859c0,-6.731 5.712,-11.491 14.551,-11.491c4.895,0 9.518,1.429 13.463,5.168l-4.964,6.936c-3.06,-2.517 -6.323,-3.468 -8.703,-3.468c-2.38,0 -3.876,1.155 -3.876,2.651c0,1.224 0.816,2.312 3.332,3.128c2.311,0.748 5.915,1.904 8.839,3.4c4.351,2.311 6.323,5.168 6.323,9.519c0,6.867 -5.847,12.17 -15.298,12.17c-6.256,0 -11.967,-2.379 -15.91,-6.867" style="fill:#fff;fill-rule:nonzero;"/><path d="M338.963,121.786c0,-5.371 -4.148,-9.655 -9.52,-9.655c-5.303,0 -9.451,4.284 -9.451,9.655c0,5.508 4.148,9.791 9.451,9.791c5.372,0 9.52,-4.283 9.52,-9.791m-29.577,0.068c0,-10.811 8.022,-19.65 20.057,-19.65c12.103,0 20.195,8.839 20.195,19.65c0,10.811 -8.092,19.65 -20.195,19.65c-12.035,0 -20.057,-8.839 -20.057,-19.65" style="fill:#fff;fill-rule:nonzero;"/><path d="M351.682,121.786c0,-11.354 8.159,-19.514 19.989,-19.514c7.48,0 14.347,3.604 17.543,10.607l-8.499,4.555c-1.972,-3.195 -5.099,-5.303 -8.84,-5.303c-5.575,0 -9.587,4.216 -9.587,9.655c0,5.575 4.012,9.724 9.452,9.724c3.739,0 7.275,-2.176 8.771,-5.237l8.635,5.1c-3.195,6.052 -9.791,9.928 -17.679,9.928c-11.694,0 -19.785,-8.161 -19.785,-19.515" style="fill:#fff;fill-rule:nonzero;"/><path d="M393.5,103.224l10.676,0l0,37.26l-10.676,0l0,-37.26Zm-0.951,-10.131c0,-3.604 2.787,-6.323 6.39,-6.323c3.537,0 6.325,2.719 6.325,6.323c0,3.672 -2.788,6.324 -6.325,6.324c-3.603,0 -6.39,-2.652 -6.39,-6.324" style="fill:#fff;fill-rule:nonzero;"/><path d="M438.853,121.786c0,-5.304 -4.012,-9.791 -9.655,-9.791c-5.644,0 -9.519,4.487 -9.519,9.791c0,5.439 3.944,9.927 9.519,9.927c5.643,0 9.655,-4.555 9.655,-9.927m10.063,-18.562l0,37.26l-10.063,0l0,-3.807c-2.72,2.719 -6.392,4.759 -11.491,4.759c-10.742,0 -18.358,-8.703 -18.358,-19.786c0,-11.151 7.82,-19.378 18.358,-19.378c5.032,0 8.771,2.108 11.491,4.896l0,-3.944l10.063,0Z" style="fill:#fff;fill-rule:nonzero;"/><path d="M483.326,138.377c-2.992,1.903 -7.411,3.06 -11.423,3.06c-8.703,0 -13.327,-5.033 -13.327,-15.027l0,-14.346l-5.915,0l0,-8.84l5.983,0l0,-13.191l10.607,0l0,13.191l11.967,0l0,8.84l-11.967,0l0,13.326c0,4.284 1.632,6.323 4.964,6.323c2.38,0 4.283,-0.884 6.119,-1.836l2.992,8.5Z" style="fill:#fff;fill-rule:nonzero;"/><path d="M493.799,117.843l17.543,0c-0.952,-4.216 -4.08,-6.936 -8.567,-6.936c-4.352,0 -7.751,2.584 -8.976,6.936m27.47,7.615l-27.402,0c1.157,4.079 4.352,7.003 10.131,7.003c4.012,0 8.635,-1.563 11.627,-3.603l4.216,7.275c-3.604,2.72 -9.384,5.168 -16.318,5.168c-13.939,0 -20.399,-9.384 -20.399,-19.515c0,-11.083 7.82,-19.513 19.651,-19.513c10.674,0 18.834,6.867 18.834,18.698c0,1.495 -0.136,2.991 -0.34,4.487" style="fill:#fff;fill-rule:nonzero;"/><path d="M522.768,134.637l5.235,-6.936c2.787,2.857 6.663,4.897 10.675,4.897c2.584,0 4.556,-1.156 4.556,-2.992c0,-1.156 -0.681,-1.972 -2.313,-2.72c-1.971,-0.884 -7.003,-2.448 -9.247,-3.536c-4.283,-2.039 -6.663,-5.303 -6.663,-9.859c0,-6.731 5.712,-11.491 14.551,-11.491c4.895,0 9.518,1.429 13.463,5.168l-4.964,6.936c-3.06,-2.517 -6.323,-3.468 -8.703,-3.468c-2.38,0 -3.876,1.155 -3.876,2.651c0,1.224 0.816,2.312 3.332,3.128c2.311,0.748 5.915,1.904 8.839,3.4c4.351,2.311 6.323,5.168 6.323,9.519c0,6.867 -5.847,12.17 -15.298,12.17c-6.256,0 -11.967,-2.379 -15.91,-6.867" style="fill:#fff;fill-rule:nonzero;"/></g></svg>