<?xml version="1.0" encoding="UTF-8"?>
<svg width="28px" height="38px" viewBox="0 0 28 38" version="1.1" xmlns="http://www.w3.org/2000/svg" xmlns:xlink="http://www.w3.org/1999/xlink">
    <!-- Generator: sketchtool 51.2 (57519) - http://www.bohemiancoding.com/sketch -->
    <title>EB07FC21-3793-437F-B64D-1E5075303386</title>
    <desc>Created with sketchtool.</desc>
    <defs></defs>
    <g id="Page-1" stroke="none" stroke-width="1" fill="none" fill-rule="evenodd">
        <g id="Map-pins" transform="translate(-367.000000, -888.000000)">
            <g id="Nearly-not-on-target-pin" transform="translate(366.000000, 888.000000)">
                <g id="Group-14" transform="translate(1.591013, 0.563727)" fill="#db6767" fill-rule="nonzero" stroke="#FFFFFF" stroke-width="0.9702">
                    <g id="Group-13">
                        <path d="M2.74835821,19.77885 C1.02557918,17.7032644 0,15.0969115 0,12.2666906 C0,5.49198446 5.87637425,0 13.1252492,0 C20.3741242,0 26.2504985,5.49198446 26.2504985,12.2666906 C26.2504985,15.5495119 24.8706767,18.5311393 22.6234891,20.7326383 L13.194997,36.84555 L2.63773125,19.77885 L2.74835821,19.77885 Z" id="Combined-Shape"></path>
                    </g>
                </g>
                <g id="Group-5" transform="translate(6.866475, 5.723427)">
                    <ellipse id="Oval-4" fill="#FFFFFF" cx="7.91319375" cy="7.73955" rx="7.91319375" ry="7.73955"></ellipse>
                    <path d="M6.19329375,4.82803125 L6.19329375,2.554125 L9.63309375,2.554125 L9.63309375,4.82803125 L9.63309375,6.01965 L10.8440062,6.01965 L13.1886562,6.01965 L13.1886562,9.45945 L10.8440062,9.45945 L9.63309375,9.45945 L9.63309375,12.9442687 L6.19329375,12.9442687 L6.19329375,9.45945 L2.63773125,9.45945 L2.63773125,6.01965 L6.19329375,6.01965 L6.19329375,4.82803125 Z" id="Combined-Shape-Copy" fill="#db6767" transform="translate(7.913194, 7.739550) rotate(-315.000000) translate(-7.913194, -7.739550) "></path>
                </g>
            </g>
        </g>
    </g>
</svg>