<?xml version="1.0" encoding="UTF-8"?>
<svg width="41px" height="57px" viewBox="0 0 41 57" version="1.1" xmlns="http://www.w3.org/2000/svg" xmlns:xlink="http://www.w3.org/1999/xlink">
    <!-- Generator: Sketch 52.3 (67297) - http://www.bohemiancoding.com/sketch -->
    <title>Group 21 Copy 3</title>
    <desc>Created with Sketch.</desc>
    <g id="Symbols" stroke="none" stroke-width="1" fill="none" fill-rule="evenodd">
        <g id="nearlyontarget" transform="translate(1.000000, -2.000000)">
            <g id="Group-21-Copy-3">
                <g id="Group-14" transform="translate(0.137867, 2.562477)" fill="#e8ce5a" fill-rule="nonzero" stroke="#FFFFFF" stroke-width="0.9702">
                    <g id="Group-13">
                        <path d="M4.0435615,29.92185 C1.5088981,26.7818615 0,22.8389175 0,18.5573012 C0,8.30838675 8.64570005,0 19.3107115,0 C29.975723,0 38.6214231,8.30838675 38.6214231,18.5573012 C38.6214231,23.5236205 36.5913405,28.0342877 33.2851335,31.3647604 L19.4133288,55.7407038 L3.8808,29.92185 L4.0435615,29.92185 Z" id="Combined-Shape"></path>
                    </g>
                </g>
                <ellipse id="Oval-4-Copy-2" fill="#FFFFFF" cx="19.5418667" cy="20.7757773" rx="11.6424" ry="11.70855"></ellipse>
                <path d="M22.1437667,18.1738773 L23.8538667,18.1738773 L27.3034667,18.1738773 L27.3034667,23.3776773 L23.8538667,23.3776773 L22.1437667,23.3776773 L22.1437667,28.5643273 L16.9399667,28.5643273 L16.9399667,23.3776773 L11.7802667,23.3776773 L11.7802667,18.1738773 L16.9399667,18.1738773 L16.9399667,16.4564273 L22.1437667,16.4564273 L22.1437667,18.1738773 Z M16.9399667,16.4294773 L16.9399667,12.9798773 L22.1437667,12.9798773 L22.1437667,16.4294773 L16.9399667,16.4294773 Z" id="Combined-Shape-Copy" fill="#e8ce5a"></path>
            </g>
        </g>
    </g>
</svg>