<?xml version="1.0" encoding="UTF-8"?>
<svg width="28px" height="39px" viewBox="0 0 28 39" version="1.1" xmlns="http://www.w3.org/2000/svg" xmlns:xlink="http://www.w3.org/1999/xlink">
    <!-- Generator: sketchtool 51.2 (57519) - http://www.bohemiancoding.com/sketch -->
    <title>DDB71467-811E-4E22-9445-488E495C245F</title>
    <desc>Created with sketchtool.</desc>
    <defs></defs>
    <g id="Page-1" stroke="none" stroke-width="1" fill="none" fill-rule="evenodd">
        <g id="Map-pins" transform="translate(-687.000000, -887.000000)">
            <g id="On-target-pin" transform="translate(688.000000, 888.000000)">
                <g id="Group-18-Copy">
                    <g id="Group-14" fill="#61c992" fill-rule="nonzero" stroke="#FFFFFF" stroke-width="0.9702">
                        <g id="Group-13">
                            <path d="M2.73281578,19.9131534 C1.01977936,17.823474 0,15.1994234 0,12.3499845 C0,5.52927642 5.84314237,0 13.0510238,0 C20.2589052,0 26.1020475,5.52927642 26.1020475,12.3499845 C26.1020475,15.6550969 24.7300289,18.6569704 22.4955495,20.8734181 L13.120377,37.0957405 L2.62281444,19.9131534 L2.73281578,19.9131534 Z" id="Combined-Shape"></path>
                        </g>
                    </g>
                    <path d="M12.87,20.74 C8.52351902,20.74 5,17.216481 5,12.87 C5,8.52351902 8.52351902,5 12.87,5 C17.216481,5 20.74,8.52351902 20.74,12.87 C20.74,17.216481 17.216481,20.74 12.87,20.74 Z M6.16592593,13.5850877 L11.0601733,18.527081 L18.6755633,10.911691 L16.2616501,8.49777778 L11.1743401,13.5850877 L8.67013302,11.0808806 L6.16592593,13.5850877 Z" id="Combined-Shape" fill="#FFFFFF"></path>
                </g>
            </g>
        </g>
    </g>
</svg>